<svg id="Layer_1" data-name="Layer 1" xmlns="http://www.w3.org/2000/svg" viewBox="0 0 535 164"><defs><style>.cls-1{fill:#fff;}</style></defs><title>Artboard 1</title><path id="path5025" class="cls-1" d="M28.65,118c-15.64,0-18-13.27-18-21.18,0-13.85,6-19.5,20.72-19.5H48.85V70.3c0-8.6-2.2-11.65-14.55-11.65a103.83,103.83,0,0,0-19,1.89L12.86,46.72A106.17,106.17,0,0,1,38,43.47c25.86,0,30,8,30,27v46.07H52.43l-1.74-5.39-1.51.83C39.27,117.45,31.52,118,28.65,118ZM36.9,89.8c-4.15,0-8,.82-8,6.76,0,4.93,2.34,7.22,7.37,7.22A26.3,26.3,0,0,0,48,101.05l.83-.38V89.8Z"/><path id="path5040" class="cls-1" d="M101.23,118a205.25,205.25,0,0,1-28.81-2.23V14.43l19.15-2.66V48.24l1.93-.74a56.49,56.49,0,0,1,20.56-4c14.46,0,21.48,8.33,21.48,25.46V88.16C135.54,106.61,129.8,118,101.23,118ZM107,59.72c-5.32,0-10.93,2.33-14.7,4.28l-.77.4v37l1.28.12c3.27.31,6.12.31,9.14.31,12.69,0,14.4-6.81,14.4-13.48V69.07C116.38,63,113.15,59.72,107,59.72Z"/><path id="path5049" class="cls-1" d="M161.78,118c-7.48,0-16.34-1.52-21.83-3.82l1.53-7.18a73,73,0,0,0,19.7,3.06c13.74,0,16.49-2.6,16.49-12.06,0-10.69-.31-11.76-17.25-15.73-18.63-4.43-20.15-9-20.15-22.59,0-12.37,6-19.09,24.28-19.09a83.79,83.79,0,0,1,21.07,2.6l-.92,7.48a118.1,118.1,0,0,0-20.76-2.14c-13,0-14.81,3.36-14.81,11.45,0,10.23.61,11.3,14.35,14.81,21.83,5.5,23.05,9,23.05,22.9,0,13.44-4.88,20.31-24.73,20.31Z"/><path id="path5058" class="cls-1" d="M224.18,115.14a45.58,45.58,0,0,1-15.57,2.9c-11.76,0-16.79-4.27-16.79-16V24.6l8.86-1.22V42.16h22.75l-.92,7.64H200.67v51.3c0,6.57.92,9.31,8.55,9.31a46.31,46.31,0,0,0,13.28-2.14l1.68,6.87Z"/><path id="path5067" class="cls-1" d="M278,116.52h-7.63l-.61-5.8A47,47,0,0,1,244.53,118c-13.13,0-19.24-7.48-19.24-20.76,0-15.73,7.18-20.61,21.83-20.61h22V62.16c0-10.23-5.34-13.59-17.56-13.59a115.36,115.36,0,0,0-22,2.44l-1.37-7.48a94.77,94.77,0,0,1,22.9-2.9c19.24,0,26.87,7.64,26.87,21.53v54.35Zm-8.86-31.91H247.43c-10.23,0-13.28,3.05-13.28,12.82,0,8.7,1.83,12.67,12.21,12.67,7.33,0,16-2.9,22.75-7.63V84.61Z"/><path id="path5076" class="cls-1" d="M319.49,49.34c-7.79,3.36-16.34,9-23.51,13.74v53.44h-8.85V42.16h7.94l.46,11.3c7.94-5.19,15.88-10.23,22.9-12.83l1.07,8.7Z"/><path id="path5085" class="cls-1" d="M355.06,115.14a45.58,45.58,0,0,1-15.57,2.9c-11.76,0-16.79-4.27-16.79-16V24.6l8.86-1.22V42.16H354.3l-.92,7.64H331.55v51.3c0,6.57.92,9.31,8.55,9.31a46.31,46.31,0,0,0,13.28-2.14l1.68,6.87Z"/><path id="path5094" class="cls-1" d="M366.2,42.16v60.16c0,5.5,2.9,7.48,8.09,7.48,6.11,0,19.24-3.66,28.55-8.55V42.16h8.85v74.35h-7.79l-.61-6.72c-7.94,3.82-21.22,8.24-30.23,8.24-11.6,0-15.73-6.56-15.73-16.79V42.16Z"/><path id="path5103" class="cls-1" d="M472.79,95.14c0,13.59-6.11,22.9-22.9,22.9A111.46,111.46,0,0,1,427,115.6V148l-8.85,1.22V42.16h8.09l.46,7a42.74,42.74,0,0,1,25-8.55c14.5,0,21.07,7.18,21.07,20.61V95.14ZM427,107.51a116.15,116.15,0,0,0,23.21,2.6c9.77,0,13.74-4.89,13.74-15V61.25c0-8.55-2.75-12.67-12.82-12.67-9.16,0-17.1,3.82-24.12,9.47v49.47Z"/><path id="path5112" class="cls-1" d="M497.59,118c-7.48,0-16.34-1.52-21.83-3.82l1.53-7.18a73,73,0,0,0,19.7,3.06c13.74,0,16.49-2.6,16.49-12.06,0-10.69-.31-11.76-17.25-15.73-18.63-4.43-20.15-9-20.15-22.59,0-12.37,6-19.09,24.28-19.09a83.78,83.78,0,0,1,21.07,2.6l-.92,7.48a118.09,118.09,0,0,0-20.76-2.14c-13,0-14.81,3.36-14.81,11.45,0,10.23.61,11.3,14.35,14.81,21.83,5.5,23.05,9,23.05,22.9,0,13.44-4.88,20.31-24.73,20.31Z"/><g id="g5114"><path id="path5116" class="cls-1" d="M26.14,144.22H24.59l-1-2.85h-5l-1,2.85H16l4-11.88h2.07Zm-5-10.77L19,140h4.25Z"/><path id="path5118" class="cls-1" d="M34.09,144.4a10.16,10.16,0,0,1-3.53-.62l.25-1.25a11.26,11.26,0,0,0,3.32.52c1.91,0,2.3-.5,2.3-1.86,0-1.6,0-1.75-2.46-2.3-2.87-.64-3.21-1.19-3.21-3.65,0-2.07.86-3.07,3.8-3.07a13.4,13.4,0,0,1,3.21.39l-.12,1.3a14.61,14.61,0,0,0-3.05-.34c-1.94,0-2.3.39-2.3,1.77,0,1.64,0,1.71,2.35,2.3,3.16.78,3.32,1.25,3.32,3.57,0,2.07-.61,3.24-3.87,3.24Z"/><path id="path5120" class="cls-1" d="M46.58,144.4a10.15,10.15,0,0,1-3.53-.62l.25-1.25a11.25,11.25,0,0,0,3.32.52c1.91,0,2.3-.5,2.3-1.86,0-1.6,0-1.75-2.46-2.3-2.87-.64-3.21-1.19-3.21-3.65,0-2.07.86-3.07,3.8-3.07a13.4,13.4,0,0,1,3.21.39l-.12,1.3a14.6,14.6,0,0,0-3-.34c-1.94,0-2.3.39-2.3,1.77,0,1.64,0,1.71,2.35,2.3,3.16.78,3.32,1.25,3.32,3.57,0,2.07-.61,3.24-3.87,3.24Z"/><path id="path5122" class="cls-1" d="M64.31,140.79c0,2-1.23,3.6-4.3,3.6s-4.3-1.62-4.3-3.6v-5c0-2,1.23-3.6,4.3-3.6s4.3,1.62,4.3,3.6Zm-7.06,0c0,1.46.89,2.28,2.77,2.28s2.77-.82,2.77-2.28v-5c0-1.46-.89-2.28-2.77-2.28s-2.77.82-2.77,2.28Z"/><path id="path5124" class="cls-1" d="M71.19,140.81c0,1.66.64,2.19,2.59,2.19a18.28,18.28,0,0,0,2.78-.25l.16,1.32a15.18,15.18,0,0,1-3,.32c-2.91,0-4.07-1.25-4.07-3.5v-5.24c0-2.25,1.16-3.5,4.07-3.5a15.18,15.18,0,0,1,3,.32l-.16,1.32a18.29,18.29,0,0,0-2.78-.25c-1.94,0-2.59.54-2.59,2.19Z"/><path id="path5126" class="cls-1" d="M83.61,144.22H82.07V132.34h1.53Z"/><path id="path5128" class="cls-1" d="M98.66,144.22H97.11l-1-2.85h-5l-1,2.85H88.56l4-11.88h2.07Zm-5-10.77L91.49,140h4.25Z"/><path id="path5130" class="cls-1" d="M107.17,147.86a4.2,4.2,0,0,1-1.43-.27l.18-.73A4.46,4.46,0,0,0,107,147c.68,0,1-.21,1-.55s-.23-.52-.75-.52a1.65,1.65,0,0,0-.54.09l-.52-.23.32-1.46c-2.41-.18-3.37-1.39-3.37-3.46v-5.24c0-2.25,1.16-3.5,4.07-3.5a15.17,15.17,0,0,1,3,.32L110,133.8a18.26,18.26,0,0,0-2.78-.25c-1.94,0-2.59.54-2.59,2.19v5.07c0,1.66.64,2.19,2.59,2.19a18.26,18.26,0,0,0,2.78-.25l.16,1.32a15.91,15.91,0,0,1-2.84.32l-.2.95a2.26,2.26,0,0,1,.48-.05c.79,0,1.3.38,1.3,1.18S108.38,147.86,107.17,147.86Z"/><path id="path5132" class="cls-1" d="M124.54,144.22H123l-1-2.85h-5l-1,2.85h-1.55l4-11.88h2.07Zm-5.94-13.54a1.3,1.3,0,0,0-.93.59l-.64-.6a2,2,0,0,1,1.59-1.07,2.1,2.1,0,0,1,1,.3,2.35,2.35,0,0,0,1,.35.9.9,0,0,0,.8-.53l.73.5a1.68,1.68,0,0,1-1.53,1.12,2.15,2.15,0,0,1-1.07-.32,1.91,1.91,0,0,0-.95-.34Zm.89,2.76L117.37,140h4.25l-2.12-6.58Z"/><path id="path5134" class="cls-1" d="M137.56,140.79c0,2-1.23,3.6-4.3,3.6s-4.3-1.62-4.3-3.6v-5c0-2,1.23-3.6,4.3-3.6s4.3,1.62,4.3,3.6Zm-7.06,0c0,1.46.89,2.28,2.77,2.28s2.77-.82,2.77-2.28v-5c0-1.46-.89-2.28-2.77-2.28s-2.77.82-2.77,2.28Z"/><path id="path5136" class="cls-1" d="M149.87,144.22V132.34h4.58c1.87,0,2.8.84,2.8,2.41v1.37a1.87,1.87,0,0,1-1.36,2,2,2,0,0,1,1.75,2.14v1.43c0,1.66-1.16,2.55-2.94,2.55Zm5.85-9.44c0-.77-.43-1.12-1.35-1.12h-3v3.85h2.71c1.16,0,1.6-.54,1.6-1.39Zm.39,5.51c0-.95-.54-1.46-1.71-1.46h-3v4.06h3.09c1.09,0,1.62-.46,1.62-1.35v-1.25Z"/><path id="path5138" class="cls-1" d="M167.34,139.92h-2.91v4.3H162.9V132.34h4.53c2.55,0,3.44,1.1,3.44,2.93V137a2.51,2.51,0,0,1-1.89,2.77l3.09,4.48H170.3Zm0-6.2h-2.94v4.85h2.94c1.46,0,2-.41,2-1.57v-1.71C169.34,134.1,168.84,133.71,167.38,133.71Z"/><path id="path5140" class="cls-1" d="M186.25,144.22H184.7l-1-2.85h-5l-1,2.85h-1.55l4-11.88h2.07Zm-5-10.77L179.08,140h4.24Z"/><path id="path5142" class="cls-1" d="M194.21,144.4a10.14,10.14,0,0,1-3.53-.62l.25-1.25a11.26,11.26,0,0,0,3.32.52c1.91,0,2.3-.5,2.3-1.86,0-1.6,0-1.75-2.46-2.3-2.87-.64-3.21-1.19-3.21-3.65,0-2.07.85-3.07,3.8-3.07a13.42,13.42,0,0,1,3.21.39l-.12,1.3a14.62,14.62,0,0,0-3.05-.34c-1.94,0-2.3.39-2.3,1.77,0,1.64,0,1.71,2.35,2.3,3.16.78,3.32,1.25,3.32,3.57,0,2.07-.61,3.24-3.87,3.24Z"/><path id="path5144" class="cls-1" d="M205.23,144.22h-1.53V132.34h1.53Z"/><path id="path5146" class="cls-1" d="M212.74,142.84h5.15v1.37H211.2V132.34h1.53v10.51Z"/><path id="path5148" class="cls-1" d="M223,132.34h7v1.38h-5.46v3.73h5.06v1.37h-5.06v4H230v1.37h-7V132.34Z"/><path id="path5150" class="cls-1" d="M237.08,144.22h-1.54V132.34h1.54Z"/><path id="path5152" class="cls-1" d="M247.5,139.92h-2.91v4.3h-1.54V132.34h4.53c2.55,0,3.44,1.1,3.44,2.93V137a2.51,2.51,0,0,1-1.89,2.77l3.09,4.48h-1.77Zm0-6.2h-2.94v4.85h2.94c1.46,0,2-.41,2-1.57v-1.71C249.5,134.1,249,133.71,247.53,133.71Z"/><path id="path5154" class="cls-1" d="M266.4,144.22h-1.55l-1-2.85h-5l-1,2.85h-1.55l4-11.88h2.07Zm-5-10.77L259.23,140h4.25Z"/><path id="path5156" class="cls-1" d="M282.12,132.34c2.91,0,3.82,1.52,3.82,3.41v5.07c0,1.89-.91,3.41-3.82,3.41H278V132.34h4.15Zm-2.62,10.5h2.57c1.8,0,2.34-.75,2.34-2.14v-4.85c0-1.39-.54-2.14-2.34-2.14H279.5Z"/><path id="path5158" class="cls-1" d="M291.46,132.34h7v1.38H293v3.73h5.06v1.37H293v4h5.48v1.37h-7V132.34Z"/><path id="path5160" class="cls-1" d="M313.72,144.4a10.16,10.16,0,0,1-3.53-.62l.25-1.25a11.26,11.26,0,0,0,3.32.52c1.91,0,2.3-.5,2.3-1.86,0-1.6,0-1.75-2.46-2.3-2.87-.64-3.21-1.19-3.21-3.65,0-2.07.86-3.07,3.8-3.07a13.41,13.41,0,0,1,3.21.39l-.12,1.3a14.6,14.6,0,0,0-3.05-.34c-1.94,0-2.3.39-2.3,1.77,0,1.64,0,1.71,2.35,2.3,3.16.78,3.32,1.25,3.32,3.57,0,2.07-.61,3.24-3.87,3.24Z"/><path id="path5162" class="cls-1" d="M325.51,133.71H322v-1.37h8.63v1.38H327v10.5h-1.53v-10.5Z"/><path id="path5164" class="cls-1" d="M343.42,144.22h-1.55l-1-2.85h-5l-1,2.85h-1.55l4-11.88h2.07Zm-5-10.77L336.25,140h4.24Z"/><path id="path5166" class="cls-1" d="M352.73,139.92h-2.91v4.3h-1.53V132.34h4.53c2.55,0,3.44,1.1,3.44,2.93V137a2.51,2.51,0,0,1-1.89,2.77l3.08,4.48h-1.77Zm0-6.2h-2.94v4.85h2.94c1.46,0,2-.41,2-1.57v-1.71C354.73,134.1,354.23,133.71,352.76,133.71Z"/><path id="path5168" class="cls-1" d="M364.27,133.71h-3.55v-1.37h8.63v1.38H365.8v10.5h-1.54Z"/><path id="path5170" class="cls-1" d="M382.41,132.34v8.54c0,1.94-1.12,3.52-4.21,3.52s-4.21-1.57-4.21-3.52v-8.54h1.54v8.45c0,1.46.8,2.23,2.67,2.23s2.68-.77,2.68-2.23v-8.45Z"/><path id="path5172" class="cls-1" d="M388.2,132.34h4.3c2.55,0,3.44,1.1,3.44,2.93V137c0,1.84-.89,2.94-3.44,2.94h-2.77v4.24H388.2V132.34Zm4.25,1.38h-2.71v4.89h2.71c1.46,0,2-.41,2-1.57v-1.75c0-1.18-.5-1.57-2-1.57Z"/><path id="path5174" class="cls-1" d="M404.08,144.4a10.16,10.16,0,0,1-3.53-.62l.25-1.25a11.25,11.25,0,0,0,3.32.52c1.91,0,2.3-.5,2.3-1.86,0-1.6,0-1.75-2.46-2.3-2.87-.64-3.21-1.19-3.21-3.65,0-2.07.86-3.07,3.8-3.07a13.42,13.42,0,0,1,3.21.39l-.12,1.3a14.6,14.6,0,0,0-3.05-.34c-1.94,0-2.3.39-2.3,1.77,0,1.64,0,1.71,2.36,2.3,3.15.78,3.31,1.25,3.31,3.57,0,2.07-.6,3.24-3.87,3.24Z"/></g></svg>