<svg id="Layer_1" data-name="Layer 1" xmlns="http://www.w3.org/2000/svg" viewBox="0 0 1060.83 378.06"><title>logo_blanko</title><path d="M252.35,240.46v-.62c28-7.45,72.13-30,72-67.07-.1-24.93-15.41-36.23-36-42.11,13.34-13,29.82-18.42,46-20.72V106.2a188.82,188.82,0,0,0-32.66,9.32,159.54,159.54,0,0,0-26.42,12.75c-14.33-1.2-39.55.72-65.06,5.8-75.31,15-171,79-170.68,149.14.11,28.06,18.87,46.46,48.13,40.62,45.43-9.06,69.55-50.37,69.39-90.57-.08-18.7-5.41-27.62-11.37-38.59l-3.11,1.87c6,10,10.69,23.76,10.74,35.91.12,27.74-14.35,69.31-44.85,75.38C86,312.3,75.72,297.51,75.63,276.63c-.26-63.27,60.53-124.05,134-138.7,25.52-5.09,42.34-3.45,52-.71C162.51,202.86,152,369.66,68,386.41,54.62,389.08,45.57,385,44,370c8.7-4.85,12.72-11,12.69-19.37,0-11.53-8.17-17.08-20.3-14.67-14,2.8-22,15.94-22,27.79.11,27.11,25.67,32,53.05,26.54,132.56-26.43,133.9-155.84,208-246.1,8.44,6.42,11.59,15.78,11.63,27.31.14,34.28-24,61.25-62.6,75.18l-1.23,3.06c22.39-8.52,45.46-3.14,45.59,28,.13,32.42-25.23,74.9-50.75,80-8.71,1.74-14.33-1.82-14.37-9.93,0-10.28,8-21.56,14.83-29.15-3.75-3.62-11.24-6.81-20.26-5-14,2.79-23.3,14-23.24,28,.09,21.51,22.22,25.2,40,21.66,45.43-9.06,96.34-48.53,96.17-90C310.92,245,289.7,233.64,252.35,240.46Z" transform="translate(-14.39 -14.2)"/><path d="M1072.72,107c-9.06,12.46-19.67,20.06-28.79,21.88C1013.26,135,1020,84.93,967.81,95.35c-42.52,8.48-90.38,46.95-90.2,93.49a49,49,0,0,0,.44,6.42c-14.4,17.89-29.15,32.84-38.78,34.74-3.65.73-5.18-1.4-5.19-4.75,0-6.7,6.92-17.82,6.89-26-.06-14.91-14-16.07-25.91-18.58v-.61c16.4-5.1,61-18.26,60.91-45.33-.06-15.21-12.84-18.45-26.81-15.66-34.62,6.9-63.3,51.9-85.06,83.34l-.62-.49c34.4-60.44,68.19-124.11,101.66-187.72L821.41,26C784.6,97,747.79,168,710.76,238.38c-10.54,12.14-20.6,21.44-28.34,23-4.86,1-7-2.26-7-6.21-.07-18.56,39.89-58.8,39.78-85.26-.07-16.12-11.94-21.67-27.12-18.64-29.77,5.94-61.79,52.2-82.64,82.85l-.6-.49q19.91-35.48,41.65-70.41l-43.12,10.43L562.9,251.6C545,275.17,529,291.92,518.41,294c-4.25.84-7-1.65-7-7.43-.09-22.2,41.29-84.65,54.27-107.33l-43.12,9.82-7.83,17.39-.61.13c-2.47-11.07-10.41-18.63-26.2-15.48-54.66,10.9-92.14,63.43-92,98.72v2.32c-14.87,18-29.65,32.24-38.76,34-3.34.67-6.39-1.16-6.41-5.73-.09-21.6,33.13-75.72,113.36-226.28l-44.63,12C340.79,257,317.84,292.67,318,319.44c0,12.77,8.6,20.81,25.6,17.42,17.78-3.54,36.52-20.56,52.7-39.82,1.93,20,12,26.87,29.26,23.44,21.56-4.3,39.41-25.21,52.1-43l.91.43c0,11.26.13,31.94,27.46,26.49C523,301,539.38,285.84,555.9,265l-15,28.79,41.3-10.07c11.43-28.15,68.83-114.8,90.09-119,5.46-1.09,8.21,1.71,8.23,6.88.08,16.73-38.1,47.18-38,76.69.07,17,9.53,27,27.44,23.45,11.71-2.34,23.08-10.1,34.69-21.84l-6.62,12.57L740,252.26c12.64-28.4,64.28-111.46,86.45-115.88,5.16-1,8.21,2.32,8.23,7.19,0,13.69-15.36,33.81-27.21,36.17-3.64.73-8.51.18-14.89,1.45-5.16,1-7.29,3.28-7.27,6.32s2.45,3.78,5.18,3.23c5.77-1.15,11.53-4.43,16.69-7.29.06,14.91-14.49,24.5-14.41,41.54,0,14.91,12.23,19.78,28.94,16.45,17.92-3.88,32.17-12.5,56.06-41.32l1-1.19c5.13,22.06,27.52,25.61,51.31,20.87,44.95-9,87.92-53.46,87.75-96l.61-.12c6.71,7.18,14.94,11,25.57,8.9,16.4-3.27,27.88-19.56,31.21-23.58ZM445.5,303.1c-7.9,1.57-10.06-6.52-10.09-13.22-.12-28.29,31.24-90.86,56.14-95.83,6.69-1.33,13.38,2.2,13.42,11.33C505.13,241.88,462.21,299.76,445.5,303.1Zm477.22-85.5c-7.59,1.51-12.18-3.66-12.21-13.09-.12-28.6,33-100.66,62.18-106.47,7.59-1.52,12.17,3.66,12.21,13.09C985,139.72,951.88,211.79,922.72,217.6Z" transform="translate(-14.39 -14.2)"/></svg>