<svg id="Layer_1" data-name="Layer 1" xmlns="http://www.w3.org/2000/svg" viewBox="0 0 898.2 458.67"><defs><style>.cls-1,.cls-7{fill:#edc922;}.cls-2{fill:none;}.cls-3{fill:#ffe465;}.cls-4,.cls-5,.cls-6{fill:#e0e0e0;}.cls-5,.cls-6,.cls-7{isolation:isolate;font-size:44.32px;font-family:Montserrat-Bold, Montserrat;font-weight:700;}.cls-5,.cls-7{letter-spacing:1.2em;}.cls-6{letter-spacing:1.13em;}</style></defs><title>logo_startup_awards</title><g id="_Grupo_" data-name=" Grupo "><path id="_Caminho_composto_" data-name=" Caminho composto " class="cls-1" d="M115.4,69H72.8Q71.6,71.55,8,241.3l.6.3H40.2q.6,0,42.9-106.7h.3v84.6l.3.6c9-2.9,13.5-4.4,13.5-4.6,12.5-3.8,18.7-6,18.7-6.6V69.5A.47.47,0,0,0,115.4,69ZM25.6,203.3v.6H25Q25,203.45,25.6,203.3Zm-1.7,1.5q0-.45.6-.6v.8h-.6Zm.5,6H25l-.9,1.2h-.3a1.73,1.73,0,0,0,.6-1.2ZM12.7,240.2H10.1c1-2.9,1.7-4.3,2-4.3a1.61,1.61,0,0,0,.3.9c-.1,0-.3.1-.3.2v1l.6.9Zm3.1-.6V239a.68.68,0,0,1,.6.4v.2Zm3.2,0q-.45,0-.6-.6v-.6a.68.68,0,0,1,.6.4v.8Zm0-1.8q-.45,0-.6-.6v-.6a.68.68,0,0,1,.6.4v.8Zm0-1.7q-.45,0-.6-.6V235a.68.68,0,0,1,.6.4v.7Zm0-1.7q-.45,0-.6-.6v-.3H19Zm4-14.7a3.19,3.19,0,0,0,.3-1.4h.6a2.49,2.49,0,0,0,.3,1.7q-.3,0-.3.9h-.6a2.66,2.66,0,0,0-.3-1.2Zm4.6,6.9-.9,2c0,1.2-.4,1.7-1.2,1.7v1.4a8.09,8.09,0,0,0-1.2,3.7H24a2.49,2.49,0,0,0-.3-1.7c.2,0,.3-.8.3-2.3l2-2.3v-.3q0-.45-.6-.6a11.52,11.52,0,0,0,1.4-3.2h.6Zm.3-11.5h-.3v-.6h.3Zm13.5,19.3v-.6H42c.1.3-.1.5-.4.6ZM69.3,116.1a.68.68,0,0,1-.4.6h-.2v-.3q0-.45.6-.6Zm2.9-.2h-.3v-.6h.3Zm40.2,8.3h.6v.3h-.6Zm-2-6.9a.68.68,0,0,0,.4.6h.2l.6-.3.6.9v.3a8.65,8.65,0,0,0-2.3.6,2.49,2.49,0,0,0-.3-1.7,2,2,0,0,0,.8-.4Zm-6.6-10.6a2.66,2.66,0,0,1,1.2.3,1.61,1.61,0,0,0,.9-.3l1.1.3a.68.68,0,0,0,.6-.4v-.2a2,2,0,0,0,1.4.6l-.6.9-.6-.3h-.3q-.45,0-.6.6a1.61,1.61,0,0,1-.9-.3q-.9,0-.9.6l-.9-.6h-.3q-.45,0-.6.6l-.6-.3Zm3.5,10.3v.3l-1.4.3V117Zm-10.1-4.6a36.21,36.21,0,0,0,4.6-.6l.6.3a1.61,1.61,0,0,0,.9-.3,1.61,1.61,0,0,1,.9.3c.4-.1.8-.2,1.1-.3h.3V113l-.6-.3h-.9l-.6.3c0-.1-.1-.3-.2-.3h-1l-.6.3c0-.1-.1-.3-.2-.3H99l-.6.3c0-.2-.4-.3-1.1-.3Zm5.8,4.9v.3h-.6v-.3Zm-1.7,0v.3h-.6v-.3Zm-4,4.6a2.38,2.38,0,0,0,.6-1.1h.3q0,.9.6.9H99q.6,0,.6-.9h.3q0,.9.6.9h.3q.6,0,.6-.9h.3a1.57,1.57,0,0,0,1.1,1.4,2.37,2.37,0,0,0,2.3-1.7,2.28,2.28,0,0,0,1.1.3l-.3,2-.6-.3H97.2Zm4.3,8c-1,1-1.4,1.6-1.4,2h-.3l-.3-2V129H103v1.1l-.6-.3h-.8Zm.6,3.2v.6h-1.4l-.6-.3.3-.6.9.6h.3Zm-3.8-2v.9h-.3v-.9Zm-6.9-21.9c.1,0,.3.1.3.2v.1l1.4-.3h.3l-.6.9c-.1,0-.3-.1-.3-.2v-.1l-1.4.3h-.3Zm1.2,31.4h.9v.3A20.29,20.29,0,0,0,91,142h-.3Zm-7.8-24.2a9.74,9.74,0,0,0,3.4-.6c0,.1.1.3.2.3h1l.6-.3v.6a8.66,8.66,0,0,0-3.2.6,6.93,6.93,0,0,0-2-.3Zm3.4,31.1a1.94,1.94,0,0,0-1.4.9h-.3v-.6c.8,0,1.1-.2,1.1-.6h.6Zm6.4-3.2c-1.3.4-2,.7-2,.9-1.3.7-2,1.1-2,1.4h-.9v-.3l4.3-2.3h.6Zm1.7,7.2h-.6v-.3h.6Zm.3-8h-.6q0-.45.6-.6Zm4.3,65h-.6v-.3h.6Zm.3-54.4a4.33,4.33,0,0,0-2,1.1H99a1.61,1.61,0,0,0-.3-.9,3.61,3.61,0,0,0,2-.6h.6Zm1.4,53.8h-.6v-.3h.6Zm.3-3.1h-.6v-.3h.6Zm-.3-51.5h-.6V153a1.61,1.61,0,0,0,.9-.3Zm0-9.5h-.3l-2.3,1.4-1.1-.6q-.9.45-.9.9c-.8-.5-1.1-.9-1.1-1.1.5,0,2.1-.7,4.9-2a1.8,1.8,0,0,0,2-1.5v-.5h.3c0,.8.2,1.1.6,1.1h.2c.4,0,.6-.6.6-1.7h.3v.6a3.42,3.42,0,0,0,2.6,1.4v.6h-.6a28.42,28.42,0,0,1-4.9,1.7c0-.1,0-.3-.1-.3Zm7.2,3.1-1.4-.3c-1.3.4-2.5.9-3.7,1.4a1.61,1.61,0,0,0-.3-.9l.9-.9.6.3h.3a40.24,40.24,0,0,0,6-2.6h.6c-.1,1.1-1.1,2-3,3Zm3.8,36.3h.6v.8a2.49,2.49,0,0,0-1.7.3v-.6a2.11,2.11,0,0,0,1.1-.5Zm-2-24.7c0,.3-.7.9-2,1.7l-.6-.3.3-.6c1-.2,1.4-.6,1.4-1.1h.2Zm-3.5-8.7-2.6,2a3.19,3.19,0,0,0-1.4-.3c2-1.1,3.3-1.7,4-1.7Zm-4.3,54.4h-.3v-.6h.3Zm2.9,6.6a2.72,2.72,0,0,0-1.7.6h-.3q-.45,0-.6-.6a.78.78,0,0,0,.9-.6V210h1.7Zm-.4-49.8q0-.45.6-.6h.9c0,.3-.4.6-1.1.9-.1-.2-.2-.3-.4-.3Zm6,46.9h-.9c-.6,0-1,.4-1.1,1.2a5.67,5.67,0,0,0-2.3,1.2h-.3q-.45,0-.6-.6c1,0,1.4-.4,1.4-1.2s1-1.6,2.9-2.6l1.4.3a3.37,3.37,0,0,0-.5,1.7Zm-2.3-4.9q0-.45-.6-.6c0-.2.7-.7,2-1.4a2.72,2.72,0,0,0,1.7.6c.1.3-.9.8-3.1,1.4Zm4.3,4h-.3l-.3-1.4v-.3h.6Zm0-6a.68.68,0,0,1-.4.6h-.5l.6-.9v-.3l-.3-.6h.6Zm0-69-.9,1.1q0,.6.9.6V136a2,2,0,0,0-1.1.3c0-.1-.1-.3-.2-.3H113c-.5-1.5-1-2.3-1.4-2.3,0-.1.1-.3.2-.3h.1q0-.45-.6-.6h-.6v.3l.3.6c-.7,0-1.1.9-1.4,2.6l.9,1.4c-.8,0-1.1.2-1.1.6v.6a.68.68,0,0,0,.4.6h.8c.2-1.3.7-2,1.4-2l.6.3a1.61,1.61,0,0,0,.9-.3,2.28,2.28,0,0,0,1.1.3v.6c-.6,0-1,.4-1.1,1.1q0,.6.9.6c0,.4-.9.8-2.6,1.1q0-.9-.6-.9h-.6c-.4,0-.6.5-.6,1.4h-1c0-.1.1-.3.2-.3h.1c0-2.1-.3-3.2-.9-3.2h-.3c-.4,0-.6.6-.6,1.7h-.3q0-.6-.3-.6a4.32,4.32,0,0,0-2.3-2.3H103a32.6,32.6,0,0,1-8.1,2.9h-.3c0-.3.9-.9,2.6-1.7,4-1.3,6-2.2,6-2.6l.6.3h.3q.6,0,.6-.9h1.4a1.61,1.61,0,0,1-.3.9.68.68,0,0,0,.4.6h.8c.3,0,.7-.5,1.1-1.4v-.3c0-.4-.5-.6-1.4-.6v-.6l.9-1.1c0-.4-.8-.6-2.3-.6a4.36,4.36,0,0,0,1.1-2.9,11.53,11.53,0,0,1,2.6.3,2.16,2.16,0,0,1,1.4-.9c.8-1.9,1.7-2.9,2.9-2.9h1.1Z" transform="translate(30.2 -1.53)"/><path id="_Caminho_" data-name=" Caminho " class="cls-1" d="M112.8,132.8h-.6v.3a.68.68,0,0,0,.4.6h.2l.6-.3A.74.74,0,0,0,112.8,132.8Z" transform="translate(30.2 -1.53)"/><path id="_Caminho_2" data-name=" Caminho 2" class="cls-1" d="M109,133.1l.3.6a.68.68,0,0,0,.6-.4v-.2l-.3-.6A.74.74,0,0,0,109,133.1Z" transform="translate(30.2 -1.53)"/><path id="_Caminho_3" data-name=" Caminho 3" class="cls-1" d="M256,100.6q-.45,0-.6.6c0,.3.3.5.7.5a.47.47,0,0,0,.5-.5Q256.6,100.75,256,100.6Z" transform="translate(30.2 -1.53)"/><rect id="_Caminho_4" data-name=" Caminho 4" class="cls-1" x="256.16" y="99.49" width="0.6" height="0.6" transform="translate(12.64 123.64) rotate(-26.55)"/><path id="_Caminho_5" data-name=" Caminho 5" class="cls-1" d="M323.6,116.2l.3.6a.68.68,0,0,0,.6-.4v-.2l-.3-.6Q323.75,115.6,323.6,116.2Z" transform="translate(30.2 -1.53)"/><path id="_Caminho_6" data-name=" Caminho 6" class="cls-1" d="M403.6,133.1l.3.6a.68.68,0,0,0,.6-.4v-.1l-.3-.6C403.8,132.6,403.7,132.7,403.6,133.1Z" transform="translate(30.2 -1.53)"/><path id="_Caminho_7" data-name=" Caminho 7" class="cls-1" d="M407.4,132.8h-.6v.3a.68.68,0,0,0,.4.6h.1l.6-.3A.63.63,0,0,0,407.4,132.8Z" transform="translate(30.2 -1.53)"/><rect id="_Caminho_8" data-name=" Caminho 8" class="cls-1" x="472.48" y="151.01" width="0.6" height="0.6" transform="translate(12.46 225.99) rotate(-26.58)"/><path id="_Caminho_9" data-name=" Caminho 9" class="cls-1" d="M443.6,229.7H443v.6c0,.3.3.5.7.5a.47.47,0,0,0,.5-.5A.53.53,0,0,0,443.6,229.7Z" transform="translate(30.2 -1.53)"/><path id="_Caminho_10" data-name=" Caminho 10" class="cls-1" d="M428.4,152h-.9q-.45,0-.6.6v.6a.68.68,0,0,0,.4.6h.8q.9-.45.9-.9v-.3Q428.85,152,428.4,152Z" transform="translate(30.2 -1.53)"/><rect id="_Caminho_11" data-name=" Caminho 11" class="cls-1" x="597.03" y="236.01" width="0.6" height="0.6" transform="translate(-12.38 290.96) rotate(-26.6)"/><path id="_Caminho_12" data-name=" Caminho 12" class="cls-1" d="M760.8,209.9h.2v-.3l-.3-.6-.6.3a.55.55,0,0,0,.4.6A.19.19,0,0,0,760.8,209.9Z" transform="translate(30.2 -1.53)"/><g id="_Grupo_2" data-name=" Grupo 2"><path id="_Caminho_13" data-name=" Caminho 13" class="cls-2" d="M568.7,203.6h.6a.68.68,0,0,0,.6-.4v-.5a2.66,2.66,0,0,1-1.2-.3Z" transform="translate(30.2 -1.53)"/><rect id="_Caminho_14" data-name=" Caminho 14" class="cls-2" x="596.9" y="182.77" width="0.3" height="0.6"/><path id="_Caminho_15" data-name=" Caminho 15" class="cls-2" d="M565.3,184l-.3.6.9,1.2a4.17,4.17,0,0,0-1.7,2.9h.3c1.5-1.5,2.3-2.7,2.3-3.5C566.3,185.2,565.9,184.8,565.3,184Z" transform="translate(30.2 -1.53)"/><path id="_Caminho_16" data-name=" Caminho 16" class="cls-2" d="M567.6,191.5h.6c.5-.1,1.1-.8,1.7-2v-1.4c-.8,0-1.8,1.1-2.9,3.2Z" transform="translate(30.2 -1.53)"/><path id="_Caminho_17" data-name=" Caminho 17" class="cls-2" d="M565.9,194.1a3.19,3.19,0,0,1-.3,1.4q.6,0,.6.9,1.2-.45,1.2-.9C567.2,195.6,566.7,195.1,565.9,194.1Z" transform="translate(30.2 -1.53)"/><rect id="_Caminho_18" data-name=" Caminho 18" class="cls-2" x="596.6" y="179.67" width="0.3" height="1.2"/><path id="_Caminho_19" data-name=" Caminho 19" class="cls-2" d="M567.6,195.8l-.3,1.7a1.61,1.61,0,0,1,.9-.3l-.3-1.4Z" transform="translate(30.2 -1.53)"/><path id="_Caminho_20" data-name=" Caminho 20" class="cls-2" d="M560.7,187.2l2-.9a.78.78,0,0,1,.6-.9h.2v-.6l-.9-1.2v-1.2c.1-.6,1.4-1.3,4-2.3V180l-1.4-.9c0,.6-.6,1.2-1.7,1.7-.5.5-1.5,2.6-3.2,6.3Z" transform="translate(30.2 -1.53)"/><path id="_Caminho_21" data-name=" Caminho 21" class="cls-2" d="M556.7,176.6c-.2,0-.6.5-1.2,1.4h.9Z" transform="translate(30.2 -1.53)"/><path id="_Caminho_22" data-name=" Caminho 22" class="cls-2" d="M545.2,182.9a.6.6,0,0,0,0,1.2c.3-1.7,1.1-2.6,2.3-2.6h.9l1.4,1.2c1.1-2.3,2.3-3.5,3.7-3.5,0,.2.5.7,1.4,1.4l.6-.9v-.3c-1,0-1.4-.2-1.4-.6l.3-1.4c-1.3,1.6-3.4,2.7-6.3,3.5-.1,0-.3-.1-.3-.2v-.1l-.6.3c-1-.9-1.4-1.5-1.4-2h-.3c0,1-.6,1.4-1.7,1.4v.3A3.49,3.49,0,0,1,545.2,182.9Z" transform="translate(30.2 -1.53)"/><path id="_Caminho_23" data-name=" Caminho 23" class="cls-2" d="M556.4,182.3q0,.9-1.2.9a3.19,3.19,0,0,1,.3,1.4h.3c0-1,.3-1.4.9-1.4a16.32,16.32,0,0,0,2,1.7,3.49,3.49,0,0,0,.6-1.7v-.9l-.6-.9c1.9-1.4,2.9-2.3,2.9-2.6v-.3a5.5,5.5,0,0,1-3.5,1.2,1.61,1.61,0,0,1,.3.9C558.4,181,557.7,181.6,556.4,182.3Z" transform="translate(30.2 -1.53)"/><path id="_Caminho_24" data-name=" Caminho 24" class="cls-2" d="M560.1,177.4l.3-.6h-.9Q559.65,177.4,560.1,177.4Z" transform="translate(30.2 -1.53)"/><path id="_Caminho_25" data-name=" Caminho 25" class="cls-2" d="M562.1,173.4l-.3-1.4a.68.68,0,0,0,.6-.4v-.2a2,2,0,0,1-.6-1.4h-.3c0,1.7-.4,2.6-1.2,2.6l.9,1.2A1.22,1.22,0,0,1,562.1,173.4Z" transform="translate(30.2 -1.53)"/><path id="_Caminho_26" data-name=" Caminho 26" class="cls-2" d="M548.6,178.6a3.56,3.56,0,0,0,2-3.2,3.16,3.16,0,0,1-2-3.2h-.3v.6l.3,1.7c-.8,0-1.2.8-1.2,2.3C548.2,176.9,548.6,177.4,548.6,178.6Z" transform="translate(30.2 -1.53)"/><rect id="_Caminho_27" data-name=" Caminho 27" class="cls-2" x="582.2" y="199.77" width="0.3" height="0.6"/><path id="_Caminho_28" data-name=" Caminho 28" class="cls-2" d="M431.2,226.8q-.45,0-.9.9v.3q.45,0,.9-.9Z" transform="translate(30.2 -1.53)"/><path id="_Caminho_29" data-name=" Caminho 29" class="cls-2" d="M554.3,201.6v-.3h-.6c0,.8-.7,1.3-2,1.7a21.36,21.36,0,0,1-2,3.2h.6l1.2-1.7C552.8,204.5,553.8,203.5,554.3,201.6Z" transform="translate(30.2 -1.53)"/><rect id="_Caminho_30" data-name=" Caminho 30" class="cls-2" x="579.7" y="201.47" width="0.3" height="0.6"/><path id="_Caminho_31" data-name=" Caminho 31" class="cls-2" d="M550.6,209.9l.6.3v-.9Q550.6,209.45,550.6,209.9Z" transform="translate(30.2 -1.53)"/><path id="_Caminho_32" data-name=" Caminho 32" class="cls-2" d="M542.6,189.8h-.3a.53.53,0,0,0-.6.6h.9Z" transform="translate(30.2 -1.53)"/><path id="_Caminho_33" data-name=" Caminho 33" class="cls-2" d="M550.6,200.7H550a.53.53,0,0,0,.6.6Z" transform="translate(30.2 -1.53)"/><path id="_Caminho_34" data-name=" Caminho 34" class="cls-2" d="M562.1,213.1l.3-.6h-.9Q561.65,213.1,562.1,213.1Z" transform="translate(30.2 -1.53)"/><path id="_Caminho_35" data-name=" Caminho 35" class="cls-2" d="M563.3,206.5h-.6a2.66,2.66,0,0,1-.3,1.2h.3l.6-.9Z" transform="translate(30.2 -1.53)"/><path id="_Caminho_36" data-name=" Caminho 36" class="cls-2" d="M552.9,207.1h.9q.45,0,1.2-1.2a2.49,2.49,0,0,1-1.7-.3A8.34,8.34,0,0,1,552.9,207.1Z" transform="translate(30.2 -1.53)"/><path id="_Caminho_37" data-name=" Caminho 37" class="cls-2" d="M561.5,188.7a2,2,0,0,1-1.4-.6c-1.2,1.7-2.2,2.6-2.9,2.6v.3c1,0,1.4.7,1.4,2h.3a4.38,4.38,0,0,1,2.6-4Z" transform="translate(30.2 -1.53)"/><path id="_Caminho_38" data-name=" Caminho 38" class="cls-2" d="M554.3,186.3h.3a.68.68,0,0,0,.6-.4v-.5A1.91,1.91,0,0,0,554.3,186.3Z" transform="translate(30.2 -1.53)"/><path id="_Caminho_39" data-name=" Caminho 39" class="cls-2" d="M555.8,186.9a1.61,1.61,0,0,1,.9.3v-.6a1.61,1.61,0,0,1-.9-.3Z" transform="translate(30.2 -1.53)"/><path id="_Caminho_40" data-name=" Caminho 40" class="cls-2" d="M517.8,226.2h-.6v.6a.68.68,0,0,0,.6-.4Z" transform="translate(30.2 -1.53)"/><path id="_Caminho_41" data-name=" Caminho 41" class="cls-2" d="M501.7,217.3h-.3a2.66,2.66,0,0,1-.3,1.2h.6Z" transform="translate(30.2 -1.53)"/><rect id="_Caminho_42" data-name=" Caminho 42" class="cls-2" x="543.7" y="209.17" width="0.3" height="0.6"/><path id="_Caminho_43" data-name=" Caminho 43" class="cls-2" d="M510.3,229.7a2.66,2.66,0,0,1-1.2-.3l-.3.6h1.4v-.3Z" transform="translate(30.2 -1.53)"/><path id="_Caminho_44" data-name=" Caminho 44" class="cls-2" d="M508.3,230.5v-.6q-.45,0-.9.9v.3h.3a.68.68,0,0,0,.6-.4Z" transform="translate(30.2 -1.53)"/><rect id="_Caminho_45" data-name=" Caminho 45" class="cls-2" x="542.5" y="228.17" width="1.2" height="0.3"/><path id="_Caminho_46" data-name=" Caminho 46" class="cls-2" d="M512.3,226.2v-.3H512c0,.2-.6.8-1.7,1.7h1.4A3.51,3.51,0,0,1,512.3,226.2Z" transform="translate(30.2 -1.53)"/><path id="_Caminho_47" data-name=" Caminho 47" class="cls-2" d="M507.2,223.3v-.6h-.3c0,1-.4,1.4-1.2,1.4v.3h.9A2.38,2.38,0,0,1,507.2,223.3Z" transform="translate(30.2 -1.53)"/><path id="_Caminho_48" data-name=" Caminho 48" class="cls-2" d="M541.1,172.5l.3-1.4v-.3h-.3a1.94,1.94,0,0,1-.9,1.4v.3Z" transform="translate(30.2 -1.53)"/><path id="_Caminho_49" data-name=" Caminho 49" class="cls-2" d="M428.9,225a.53.53,0,0,0-.6.6h.3a.68.68,0,0,0,.6-.4V225h-.3Z" transform="translate(30.2 -1.53)"/><path id="_Caminho_50" data-name=" Caminho 50" class="cls-2" d="M503.7,232.2l-.3-.6V231a24.94,24.94,0,0,1,2.9-4.3c-.1,0-.3-.1-.3-.2v-.1c-1.4,0-2.5,1.1-3.2,3.2-1.5.8-2.3,1.7-2.3,2.6v.3a15,15,0,0,1,2.9.6Q503.4,232.2,503.7,232.2Z" transform="translate(30.2 -1.53)"/><path id="_Caminho_51" data-name=" Caminho 51" class="cls-2" d="M432.7,236l2.3-5.5c-.3,0-1.3,1.4-2.9,4.3a14.81,14.81,0,0,0-2.9,5.2h1.4a3,3,0,0,1,1.7-2.6q0-.9.6-.9Z" transform="translate(30.2 -1.53)"/><path id="_Caminho_52" data-name=" Caminho 52" class="cls-2" d="M427.8,230.2v1.7c.2,0,.6-.6,1.1-1.7v-.3a1.61,1.61,0,0,1-.9-.3Z" transform="translate(30.2 -1.53)"/><rect id="_Caminho_53" data-name=" Caminho 53" class="cls-2" x="457.7" y="224.37" width="0.3" height="0.6"/><path id="_Caminho_54" data-name=" Caminho 54" class="cls-2" d="M428.6,202.3V202h-.3a.53.53,0,0,0-.6.6v.6Q428.3,203.2,428.6,202.3Z" transform="translate(30.2 -1.53)"/><path id="_Caminho_55" data-name=" Caminho 55" class="cls-2" d="M516.1,237.1h-2a.53.53,0,0,0-.6.6v.3c.2.6.8.9,1.7.9,0-1,.3-1.4.9-1.4Z" transform="translate(30.2 -1.53)"/><path id="_Caminho_56" data-name=" Caminho 56" class="cls-2" d="M505.5,230.8l.6.3,1.2-2-.6-.3C506.3,229.5,505.9,230.2,505.5,230.8Z" transform="translate(30.2 -1.53)"/><path id="_Caminho_57" data-name=" Caminho 57" class="cls-2" d="M515.5,239.1v.3a.53.53,0,0,0,.6.6h1.4l-.9-1.2A1.13,1.13,0,0,1,515.5,239.1Z" transform="translate(30.2 -1.53)"/><path id="_Caminho_58" data-name=" Caminho 58" class="cls-2" d="M477.5,144.2a21.73,21.73,0,0,0,13.1-3.9l-34.4-10.7v14.5Z" transform="translate(30.2 -1.53)"/><path id="_Caminho_59" data-name=" Caminho 59" class="cls-2" d="M520.1,236.5a9.08,9.08,0,0,1,.3-2.3l-1.2.3-.6-.3a2.38,2.38,0,0,1-1.2.3,1.61,1.61,0,0,1-.3-.9h-.6c0,.8-.5,1.2-1.4,1.2v.6h4q.6,0,.6,1.2Z" transform="translate(30.2 -1.53)"/><path id="_Caminho_60" data-name=" Caminho 60" class="cls-2" d="M514.1,231.1v-.3h-.3v.6h-.6l-.9-.6a1.61,1.61,0,0,1-.3.9,2,2,0,0,1,1.2,2v.3l-.3.6,1.2.9q.45,0,.9-.9c-.9-.4-1.3-.8-1.4-1.2V232Z" transform="translate(30.2 -1.53)"/><rect id="_Caminho_61" data-name=" Caminho 61" class="cls-2" x="535.7" y="237.07" width="0.3" height="0.6"/><path id="_Caminho_62" data-name=" Caminho 62" class="cls-2" d="M546.9,194.4a.53.53,0,0,0,.6.6h.5a2.28,2.28,0,0,1,1.2-.6,3.4,3.4,0,0,1-.3-2C548.3,192.4,547.7,193.1,546.9,194.4Z" transform="translate(30.2 -1.53)"/><path id="_Caminho_63" data-name=" Caminho 63" class="cls-2" d="M514.9,227.6c0-1.2.5-1.7,1.4-1.7h.3v-.6a2,2,0,0,1-1.4-.6,2.59,2.59,0,0,1-.9,1.7,2.38,2.38,0,0,1,.3,1.2Z" transform="translate(30.2 -1.53)"/><path id="_Caminho_64" data-name=" Caminho 64" class="cls-2" d="M522.7,238.6l-.6-.3-.6.3-1.2-.3a.67.67,0,0,0-.6,1.2h0l.6-.3h.6c.1,0,.3.1.3.2v.1l.6-.3h.6c.1,0,.3.1.3.2v.1a2.38,2.38,0,0,1,1.2-.3v-.3a.68.68,0,0,0-.4-.6h-.2Z" transform="translate(30.2 -1.53)"/><path id="_Caminho_65" data-name=" Caminho 65" class="cls-2" d="M518.7,225h-.6v.6a.68.68,0,0,0,.6-.4Z" transform="translate(30.2 -1.53)"/><path id="_Caminho_66" data-name=" Caminho 66" class="cls-2" d="M516.7,229.7h-1.2v.9a3,3,0,0,1,2,.6h3.2q.45,0,.9.9v.6l-.3.6h1.2l-.6-.9.6-.3h.3v.9a.68.68,0,0,0,.6-.4V232c-.6,0-1.1-1.1-1.4-3.2-2.1-.2-3.2-.5-3.2-.9C518.3,227.9,517.7,228.5,516.7,229.7Z" transform="translate(30.2 -1.53)"/><path id="_Caminho_67" data-name=" Caminho 67" class="cls-2" d="M519.5,216.7h-.3l-.3,1.2h.6Z" transform="translate(30.2 -1.53)"/><path id="_Caminho_68" data-name=" Caminho 68" class="cls-2" d="M563.3,212.2h1.2v-.6a2.66,2.66,0,0,1-1.2-.3Z" transform="translate(30.2 -1.53)"/><polygon id="_Caminho_69" data-name=" Caminho 69" class="cls-2" points="670.6 185.68 670.6 185.28 670.3 185.28 670.3 185.68 670.6 185.68"/><rect id="_Caminho_70" data-name=" Caminho 70" class="cls-2" x="631.7" y="216.77" width="0.3" height="0.6"/><path id="_Caminho_71" data-name=" Caminho 71" class="cls-2" d="M601,219.7h-.9v.9Q600.55,220.6,601,219.7Z" transform="translate(30.2 -1.53)"/><rect id="_Caminho_72" data-name=" Caminho 72" class="cls-2" x="659.6" y="211.57" width="0.3" height="0.6"/><rect id="_Caminho_73" data-name=" Caminho 73" class="cls-2" x="660.8" y="208.67" width="0.3" height="0.9"/><rect id="_Caminho_74" data-name=" Caminho 74" class="cls-2" x="660.2" y="210.17" width="0.3" height="0.9"/><rect id="_Caminho_75" data-name=" Caminho 75" class="cls-2" x="636" y="208.17" width="0.3" height="1.2"/><path id="_Caminho_76" data-name=" Caminho 76" class="cls-2" d="M583.4,234.4l.3,1.7a1.61,1.61,0,0,0-.3.9h.6q0-1.2.9-1.2v-1.2a3.51,3.51,0,0,1-1.4-.6Z" transform="translate(30.2 -1.53)"/><path id="_Caminho_77" data-name=" Caminho 77" class="cls-2" d="M583.4,224v.3c.9-.4,1.3-.8,1.4-1.2l-.6-.3Z" transform="translate(30.2 -1.53)"/><rect id="_Caminho_78" data-name=" Caminho 78" class="cls-2" x="615.6" y="234.57" width="0.6" height="0.3"/><path id="_Caminho_79" data-name=" Caminho 79" class="cls-2" d="M592.9,214a.78.78,0,0,1,.6-.9h.2l-.3-1.4h-.3a2.28,2.28,0,0,1-1.2.6C592.2,213.4,592.5,214,592.9,214Z" transform="translate(30.2 -1.53)"/><rect id="_Caminho_80" data-name=" Caminho 80" class="cls-2" x="613.6" y="236.87" width="0.3" height="0.9"/><rect id="_Caminho_81" data-name=" Caminho 81" class="cls-2" x="627.7" y="220.17" width="0.6" height="0.6"/><path id="_Caminho_82" data-name=" Caminho 82" class="cls-2" d="M585.4,220.6v-.3a4.92,4.92,0,0,1-1.7.6V222h.3C584,221.6,584.5,221.2,585.4,220.6Z" transform="translate(30.2 -1.53)"/><path id="_Caminho_83" data-name=" Caminho 83" class="cls-2" d="M690.3,230.9H690v.9c.2,0,.8-.7,1.7-2v-.3C691.5,229.5,691,230,690.3,230.9Z" transform="translate(30.2 -1.53)"/><path id="_Caminho_84" data-name=" Caminho 84" class="cls-2" d="M746.7,220.6c0-.1.2-.3.5-.6l-1.4-.4v.7A1.61,1.61,0,0,1,746.7,220.6Z" transform="translate(30.2 -1.53)"/><path id="_Caminho_85" data-name=" Caminho 85" class="cls-2" d="M688.5,215.7v.3a2.49,2.49,0,0,1,1.7.3l1.7-2.3h-.6C691.4,215,690.5,215.5,688.5,215.7Z" transform="translate(30.2 -1.53)"/><rect id="_Caminho_86" data-name=" Caminho 86" class="cls-2" x="722.8" y="211.27" width="0.3" height="0.6"/><path id="_Caminho_87" data-name=" Caminho 87" class="cls-2" d="M749,224.9l-.6-.3v.3a3.51,3.51,0,0,1,.6,1.4c2.1-1.6,3.8-3,5.2-4.2l-1.9-.6c-.8.6-1.7,1.3-2.7,2.2Q749.6,224.9,749,224.9Z" transform="translate(30.2 -1.53)"/><polygon id="_Caminho_88" data-name=" Caminho 88" class="cls-2" points="787.2 221.97 787.8 221.97 787.8 221.68 787.5 221.68 787.2 221.68 787.2 221.97"/><rect id="_Caminho_89" data-name=" Caminho 89" class="cls-2" x="736.3" y="237.17" width="0.6" height="0.3"/><path id="_Caminho_90" data-name=" Caminho 90" class="cls-2" d="M697.2,223.5v-.9c-.2,0-1,.9-2.3,2.6q-.45,0-1.2,1.2h-.3v.9c.4,0,1.1-.9,2.3-2.6Z" transform="translate(30.2 -1.53)"/><path id="_Caminho_91" data-name=" Caminho 91" class="cls-2" d="M711.8,213.1h-.6v.6a.68.68,0,0,0,.6-.4C711.9,213.2,711.9,213.2,711.8,213.1Z" transform="translate(30.2 -1.53)"/><rect id="_Caminho_92" data-name=" Caminho 92" class="cls-2" x="755.9" y="228.87" width="0.3" height="0.6"/><path id="_Caminho_93" data-name=" Caminho 93" class="cls-2" d="M718.2,238.4v-.6h-.6q0,1.2-.9,1.2v.6h.6Q717.3,239.15,718.2,238.4Z" transform="translate(30.2 -1.53)"/><path id="_Caminho_94" data-name=" Caminho 94" class="cls-2" d="M708.1,237.6h-.6a.53.53,0,0,0-.6.6h.6a.68.68,0,0,0,.6-.4Z" transform="translate(30.2 -1.53)"/><path id="_Caminho_95" data-name=" Caminho 95" class="cls-2" d="M701.8,225.8h-.3c-.3.6-2.5,3.5-6.6,8.9q0,.45.9.9h.3c0-.6.5-1,1.4-1.2.9-1.3,1.5-2,1.7-2a2.72,2.72,0,0,1-.6-1.7c1-.5,1.4-.9,1.4-1.2a6.57,6.57,0,0,0,1.7-2.9h.6v-.3a.68.68,0,0,0-.4-.6A.1.1,0,0,1,701.8,225.8Z" transform="translate(30.2 -1.53)"/><rect id="_Caminho_96" data-name=" Caminho 96" class="cls-2" x="617.1" y="211.27" width="0.6" height="0.3"/><path id="_Caminho_97" data-name=" Caminho 97" class="cls-2" d="M623.4,228.3q-.9,0-.9.6v.6h.3c2.5-2.8,3.7-5,3.7-6.6H626A22.39,22.39,0,0,0,623.4,228.3Z" transform="translate(30.2 -1.53)"/><path id="_Caminho_98" data-name=" Caminho 98" class="cls-2" d="M648.4,200.5l-.3-.6c-.5,0-1.2,1.1-2,3.2v1.2h.3C647.1,201.7,647.8,200.5,648.4,200.5Z" transform="translate(30.2 -1.53)"/><path id="_Caminho_99" data-name=" Caminho 99" class="cls-2" d="M624.3,232.4a2.72,2.72,0,0,1-.6,1.7v.3c1.7-.6,2.6-1.1,2.6-1.7l-.6-.3Z" transform="translate(30.2 -1.53)"/><path id="_Caminho_100" data-name=" Caminho 100" class="cls-2" d="M620.8,215.4H622v-1.2a2.28,2.28,0,0,1-1.2.6Z" transform="translate(30.2 -1.53)"/><path id="_Caminho_101" data-name=" Caminho 101" class="cls-2" d="M621.1,233.5h-.3V235a1.61,1.61,0,0,1,.9-.3v-.6c.1-.3-.1-.5-.4-.6Z" transform="translate(30.2 -1.53)"/><path id="_Caminho_102" data-name=" Caminho 102" class="cls-2" d="M645.8,204.8v-.3a.53.53,0,0,0-.6.6v.3a.68.68,0,0,0,.6-.4Z" transform="translate(30.2 -1.53)"/><rect id="_Caminho_103" data-name=" Caminho 103" class="cls-2" x="669.7" y="186.57" width="0.3" height="0.6"/><path id="_Caminho_104" data-name=" Caminho 104" class="cls-2" d="M638.9,224l-.3-1.4.6-.3.6.3a14.89,14.89,0,0,0,1.4-5.5,30.64,30.64,0,0,0-4,8.6v.6C637.5,226.3,638.1,225.5,638.9,224Z" transform="translate(30.2 -1.53)"/><path id="_Caminho_105" data-name=" Caminho 105" class="cls-2" d="M628.3,231.5v1.2c2.7-.9,4-2.2,4-4q.6,0,.6-1.2l-.6-.3h-.6c0,.5-1.1,1.9-3.2,4.3Z" transform="translate(30.2 -1.53)"/><rect id="_Caminho_106" data-name=" Caminho 106" class="cls-2" x="667.7" y="191.47" width="0.6" height="0.3"/><path id="_Caminho_107" data-name=" Caminho 107" class="cls-2" d="M620.8,216a.53.53,0,0,0-.6.6v.3h.6Z" transform="translate(30.2 -1.53)"/><path id="_Caminho_108" data-name=" Caminho 108" class="cls-2" d="M639.2,190.1v-.6h-.6Q638.75,190.1,639.2,190.1Z" transform="translate(30.2 -1.53)"/><rect id="_Caminho_109" data-name=" Caminho 109" class="cls-2" x="672.3" y="214.77" width="0.3" height="0.6"/><path id="_Caminho_110" data-name=" Caminho 110" class="cls-2" d="M592.3,226h.9a.53.53,0,0,1,.6-.6h.9l.9.6q.3-1.2,1.2-1.2v-1.7a2.59,2.59,0,0,1-1.7-.9l-.6.3.3.6c0,.4-.9,1-2.6,1.7,0,.8-1.1,1.8-3.2,2.9a1.61,1.61,0,0,1,.3.9C590.7,226.9,591.8,226,592.3,226Z" transform="translate(30.2 -1.53)"/><path id="_Caminho_composto_2" data-name=" Caminho composto 2" class="cls-2" d="M601.2,232.7l.3.6v.9q0,.45-.9.9h-.3l-.9-.6h-.3l-1.2,1.2a6.57,6.57,0,0,1-1.7-1.2h-.9q0,.9-.6.9l-1.2-.9a4.69,4.69,0,0,0-1.4,2.9v.6h1.2c0-.8.9-1.2,2.6-1.2,1.2.5,1.7,1.1,1.7,1.7.8,0,2.3-1.3,4.6-4a2.72,2.72,0,0,1-.6-1.7Zm-4,4-.3-.6.6-.3.3.6Z" transform="translate(30.2 -1.53)"/><path id="_Caminho_111" data-name=" Caminho 111" class="cls-2" d="M606.1,235.8a8.81,8.81,0,0,1-1.7,2.6h.3c1-1.2,1.6-1.7,2-1.7v-.3a.68.68,0,0,0-.4-.6Z" transform="translate(30.2 -1.53)"/><path id="_Caminho_112" data-name=" Caminho 112" class="cls-2" d="M589.7,239v1.2h1.7v-.6a3.38,3.38,0,0,1-1.2-.6Z" transform="translate(30.2 -1.53)"/><path id="_Caminho_113" data-name=" Caminho 113" class="cls-2" d="M546.3,197v.6a.53.53,0,0,0,.6.6v-1.7C546.5,196.5,546.3,196.7,546.3,197Z" transform="translate(30.2 -1.53)"/><path id="_Caminho_114" data-name=" Caminho 114" class="cls-2" d="M607.9,209.1H607v.3a1.61,1.61,0,0,1,.9.3Z" transform="translate(30.2 -1.53)"/><path id="_Caminho_115" data-name=" Caminho 115" class="cls-2" d="M584.6,213.1H584a.53.53,0,0,0-.6.6v2h.3l.9-.6-.3-.6a.53.53,0,0,1,.6-.6h.3l.9.6.9-1.2-1.4.3Z" transform="translate(30.2 -1.53)"/><rect id="_Caminho_116" data-name=" Caminho 116" class="cls-2" x="639.5" y="235.47" width="0.3" height="0.6"/><path id="_Caminho_117" data-name=" Caminho 117" class="cls-2" d="M611.3,215.1h.3l.9-1.2h-.3Q611.75,214,611.3,215.1Z" transform="translate(30.2 -1.53)"/><rect id="_Caminho_118" data-name=" Caminho 118" class="cls-2" x="638.1" y="236.27" width="0.6" height="0.6"/><path id="_Caminho_119" data-name=" Caminho 119" class="cls-2" d="M612.5,212v1.7c.5,0,.8-.8.9-2.3H613C612.7,211.4,612.5,211.6,612.5,212Z" transform="translate(30.2 -1.53)"/><rect id="_Caminho_120" data-name=" Caminho 120" class="cls-2" x="642.4" y="225.07" width="0.3" height="0.6"/><rect id="_Caminho_121" data-name=" Caminho 121" class="cls-2" x="640.7" y="234.87" width="0.3" height="0.6"/><rect id="_Caminho_122" data-name=" Caminho 122" class="cls-2" x="645.2" y="227.67" width="0.3" height="0.6"/><path id="_Caminho_123" data-name=" Caminho 123" class="cls-2" d="M476.4,148.5q-1.2,0-1.2-.9c-.9.2-1.3.6-1.4,1.1l2,1.1Z" transform="translate(30.2 -1.53)"/><rect id="_Caminho_124" data-name=" Caminho 124" class="cls-2" x="426.9" y="206.07" width="0.6" height="0.3"/><path id="_Caminho_125" data-name=" Caminho 125" class="cls-2" d="M396.7,153.3h.6l.3-.6a1.61,1.61,0,0,1-.9.3Z" transform="translate(30.2 -1.53)"/><rect id="_Caminho_126" data-name=" Caminho 126" class="cls-2" x="427.2" y="202.97" width="0.6" height="0.3"/><path id="_Caminho_127" data-name=" Caminho 127" class="cls-2" d="M403,142.3v-.6a3.76,3.76,0,0,1-2.6-1.4v-.6h-.3c0,1.2-.2,1.7-.6,1.7h-.3c-.4,0-.6-.4-.6-1.1h-.3a1.8,1.8,0,0,1-1.5,2h-.5c-2.8,1.3-4.4,2-4.9,2,0,.3.4.7,1.1,1.1q0-.45.9-.9l1.1.6,2.3-1.4h.3c.1,0,.3.1.3.2v.1a28.42,28.42,0,0,0,4.9-1.7Z" transform="translate(30.2 -1.53)"/><path id="_Caminho_128" data-name=" Caminho 128" class="cls-2" d="M400.7,146.6h-.3l-.6-.3-.9.9a1.61,1.61,0,0,1,.3.9,18.64,18.64,0,0,1,3.7-1.4l1.4.3c1.9-1,2.9-2,2.9-2.9h-.6A34.87,34.87,0,0,1,400.7,146.6Z" transform="translate(30.2 -1.53)"/><path id="_Caminho_129" data-name=" Caminho 129" class="cls-2" d="M390.7,143.5h.6v-.6C390.9,143,390.7,143.1,390.7,143.5Z" transform="translate(30.2 -1.53)"/><path id="_Caminho_130" data-name=" Caminho 130" class="cls-2" d="M404.2,202.5a.53.53,0,0,1,.6.6c2.1-.6,3.2-1.1,3.2-1.4a2.72,2.72,0,0,1-1.7-.6C404.9,201.8,404.2,202.3,404.2,202.5Z" transform="translate(30.2 -1.53)"/><path id="_Caminho_131" data-name=" Caminho 131" class="cls-2" d="M393.2,154.4a1.61,1.61,0,0,1,.3.9h.3a3.09,3.09,0,0,1,2-1.1v-.3h-.6A3.94,3.94,0,0,1,393.2,154.4Z" transform="translate(30.2 -1.53)"/><path id="_Caminho_132" data-name=" Caminho 132" class="cls-2" d="M403.3,208.5c0,.8-.5,1.2-1.4,1.2a.53.53,0,0,0,.6.6h.3a7.24,7.24,0,0,1,2.3-1.2c.2-.8.6-1.2,1.1-1.2h.9a2.72,2.72,0,0,1,.6-1.7l-1.4-.3C404.3,207,403.3,207.8,403.3,208.5Z" transform="translate(30.2 -1.53)"/><path id="_Caminho_133" data-name=" Caminho 133" class="cls-2" d="M398.7,210.8a.53.53,0,0,0,.6.6h.3a2.72,2.72,0,0,1,1.7-.6v-.9h-1.7a.78.78,0,0,1-.6.9Z" transform="translate(30.2 -1.53)"/><path id="_Caminho_134" data-name=" Caminho 134" class="cls-2" d="M402.5,160.5h-.9a.53.53,0,0,0-.6.6c.1,0,.3.1.3.2v.1Q402.5,160.8,402.5,160.5Z" transform="translate(30.2 -1.53)"/><rect id="_Caminho_135" data-name=" Caminho 135" class="cls-2" x="420.6" y="149.67" width="0.6" height="0.3"/><rect id="_Caminho_136" data-name=" Caminho 136" class="cls-2" x="428.3" y="202.07" width="0.3" height="0.6"/><path id="_Caminho_137" data-name=" Caminho 137" class="cls-2" d="M403.9,159.3l-.3.6.6.3c1.3-.8,2-1.4,2-1.7l-.6-.3h-.3C405.3,158.7,404.9,159.1,403.9,159.3Z" transform="translate(30.2 -1.53)"/><path id="_Caminho_138" data-name=" Caminho 138" class="cls-2" d="M408.8,184v-.9h-.6a2.38,2.38,0,0,1-1.1.6v.6A4.67,4.67,0,0,1,408.8,184Z" transform="translate(30.2 -1.53)"/><path id="_Caminho_139" data-name=" Caminho 139" class="cls-2" d="M190.4,209.4l-.6-.3h-.3a1.1,1.1,0,0,1-.8,1.2h-.3v1.2h.6A2.9,2.9,0,0,0,190.4,209.4Z" transform="translate(30.2 -1.53)"/><path id="_Caminho_140" data-name=" Caminho 140" class="cls-2" d="M400.2,151.8l2.6-2a12.46,12.46,0,0,0-4,1.7A3.93,3.93,0,0,1,400.2,151.8Z" transform="translate(30.2 -1.53)"/><rect id="_Caminho_141" data-name=" Caminho 141" class="cls-2" x="425.2" y="206.67" width="0.6" height="0.3"/><path id="_Caminho_142" data-name=" Caminho 142" class="cls-2" d="M437.3,135.3V135H437a9.17,9.17,0,0,0-2.3.9l.3.6Z" transform="translate(30.2 -1.53)"/><path id="_Caminho_143" data-name=" Caminho 143" class="cls-2" d="M434.1,132.1v-.6c-.3,0-.7.4-1.2,1.1h.3C433.2,132.3,433.5,132.1,434.1,132.1Z" transform="translate(30.2 -1.53)"/><path id="_Caminho_144" data-name=" Caminho 144" class="cls-2" d="M431.8,133.9a.53.53,0,0,0-.6.6h.6Z" transform="translate(30.2 -1.53)"/><rect id="_Caminho_145" data-name=" Caminho 145" class="cls-2" x="464.3" y="145.27" width="0.3" height="0.6"/><path id="_Caminho_146" data-name=" Caminho 146" class="cls-2" d="M437,138.2c1,0,1.4.1,1.4.3q1.2-.45,1.2-.9c-1,0-1.4-.3-1.4-.9-.3,0-.7.4-1.2,1.1Z" transform="translate(30.2 -1.53)"/><path id="_Caminho_147" data-name=" Caminho 147" class="cls-2" d="M441.6,132.4v-1.1h-.3c0,.4-.9,1.3-2.6,2.6l-.3.6h1.2C439.6,134.1,440.2,133.4,441.6,132.4Z" transform="translate(30.2 -1.53)"/><path id="_Caminho_148" data-name=" Caminho 148" class="cls-2" d="M441.6,135.9v-.6h-.9a2.49,2.49,0,0,1-.3,1.7h.3Z" transform="translate(30.2 -1.53)"/><path id="_Caminho_149" data-name=" Caminho 149" class="cls-2" d="M443.3,134.7h-.9v.3a1.61,1.61,0,0,1,.9.3Z" transform="translate(30.2 -1.53)"/><path id="_Caminho_150" data-name=" Caminho 150" class="cls-2" d="M426,240q0-.45-.9-.9v.9Z" transform="translate(30.2 -1.53)"/><rect id="_Caminho_151" data-name=" Caminho 151" class="cls-2" x="460" y="141.27" width="0.6" height="0.3"/><rect id="_Caminho_152" data-name=" Caminho 152" class="cls-2" x="298.9" y="182.27" width="0.3" height="0.9"/><path id="_Caminho_composto_3" data-name=" Caminho composto 3" class="cls-2" d="M432.1,151.4c.5,0,1.7-.9,3.5-2.6-.1-.4-.6-.8-1.4-1.1,0,.2-.7.9-2,2h-.3q-.6,0-.6-.9l-4,2.6a.68.68,0,0,1-.4.6h-.5c-.1,0-.3-.1-.3-.2v-.1a1.61,1.61,0,0,1-.9.3v.6l1.7,2.3Zm-5.2,1.1a.53.53,0,0,1,.6-.6h.9a.53.53,0,0,1,.6.6v.3q0,.45-.9.9h-.6a.68.68,0,0,1-.6-.4v-.8Z" transform="translate(30.2 -1.53)"/><path id="_Caminho_153" data-name=" Caminho 153" class="cls-2" d="M426.3,187.9v-1.2H426q-.45,0-.9.9V189C425.5,189.1,425.9,188.7,426.3,187.9Z" transform="translate(30.2 -1.53)"/><path id="_Caminho_154" data-name=" Caminho 154" class="cls-2" d="M426.6,148.2l-.6-.3a1.94,1.94,0,0,1-.9,1.4v.3A2.12,2.12,0,0,0,426.6,148.2Z" transform="translate(30.2 -1.53)"/><rect id="_Caminho_155" data-name=" Caminho 155" class="cls-2" x="458.8" y="120.27" width="0.6" height="0.3"/><path id="_Caminho_156" data-name=" Caminho 156" class="cls-2" d="M428.4,147.1l1.1-1.4a4.92,4.92,0,0,1-.6-1.7,8.08,8.08,0,0,1-3.7.9v.3A3.51,3.51,0,0,1,428.4,147.1Z" transform="translate(30.2 -1.53)"/><path id="_Caminho_157" data-name=" Caminho 157" class="cls-2" d="M310.4,239v.6h.6a.55.55,0,0,0-.4-.6Z" transform="translate(30.2 -1.53)"/><rect id="_Caminho_158" data-name=" Caminho 158" class="cls-2" x="341.2" y="154.87" width="0.3" height="0.6"/><rect id="_Caminho_159" data-name=" Caminho 159" class="cls-2" x="297.4" y="186.87" width="0.3" height="0.6"/><path id="_Caminho_160" data-name=" Caminho 160" class="cls-2" d="M320.8,228.9v.3l-2,2.3c0,1.5-.1,2.3-.3,2.3a4.67,4.67,0,0,1,.3,1.7h.2a9.36,9.36,0,0,1,1.1-3.7v-1.4c.8,0,1.1-.6,1.1-1.7l.9-2v-1.4h-.6a13,13,0,0,1-1.4,3.2C320.6,228.4,320.8,228.6,320.8,228.9Z" transform="translate(30.2 -1.53)"/><path id="_Caminho_161" data-name=" Caminho 161" class="cls-2" d="M310.4,159l.3-1.4h-.3a5.24,5.24,0,0,0-2,2.6l.6.3C309,160.1,309.5,159.6,310.4,159Z" transform="translate(30.2 -1.53)"/><path id="_Caminho_162" data-name=" Caminho 162" class="cls-2" d="M273.3,206.2c.8-3.3,1.3-5.2,1.7-5.8v-.6l-1.1.9.3.6c-.4,2.2-.9,3.5-1.4,3.7a2.38,2.38,0,0,1,.3,1.2h.2Z" transform="translate(30.2 -1.53)"/><path id="_Caminho_163" data-name=" Caminho 163" class="cls-2" d="M320.2,203.3a.53.53,0,0,0-.6.6h.6Z" transform="translate(30.2 -1.53)"/><path id="_Caminho_164" data-name=" Caminho 164" class="cls-2" d="M319,204.2a.53.53,0,0,0-.6.6v.2h.6Z" transform="translate(30.2 -1.53)"/><path id="_Caminho_165" data-name=" Caminho 165" class="cls-2" d="M319.6,210.8H319a3.38,3.38,0,0,1-.6,1.2h.3Z" transform="translate(30.2 -1.53)"/><rect id="_Caminho_166" data-name=" Caminho 166" class="cls-2" x="318.7" y="180.27" width="0.3" height="0.6"/><path id="_Caminho_167" data-name=" Caminho 167" class="cls-2" d="M313.6,236.1v-.6a.47.47,0,0,0-.5-.5H313v.6C313,235.9,313.2,236.1,313.6,236.1Z" transform="translate(30.2 -1.53)"/><path id="_Caminho_168" data-name=" Caminho 168" class="cls-2" d="M318.5,220.9q0-.9.3-.9a4.67,4.67,0,0,1-.3-1.7h-.6a3.19,3.19,0,0,1-.3,1.4,2.38,2.38,0,0,1,.3,1.2Z" transform="translate(30.2 -1.53)"/><path id="_Caminho_169" data-name=" Caminho 169" class="cls-2" d="M313.6,234.4v-.9H313v.3A.53.53,0,0,0,313.6,234.4Z" transform="translate(30.2 -1.53)"/><path id="_Caminho_170" data-name=" Caminho 170" class="cls-2" d="M307.2,238.7l-.6-.9V237c0-.1.1-.3.2-.3h.1a1.61,1.61,0,0,1-.3-.9c-.3,0-1,1.4-2,4.3h2.6Z" transform="translate(30.2 -1.53)"/><path id="_Caminho_171" data-name=" Caminho 171" class="cls-2" d="M196.8,195.3h.9l.9-1.1-1.5.5-.2.3Z" transform="translate(30.2 -1.53)"/><path id="_Caminho_172" data-name=" Caminho 172" class="cls-2" d="M439.6,144.2c.1,0,.3.1.3.2v.1a1.61,1.61,0,0,1,.9-.3v-.6h-.6Q439.6,143.75,439.6,144.2Z" transform="translate(30.2 -1.53)"/><path id="_Caminho_173" data-name=" Caminho 173" class="cls-2" d="M313.6,237.8v-.6a.68.68,0,0,0-.4-.6H313v.6C313,237.7,313.2,237.8,313.6,237.8Z" transform="translate(30.2 -1.53)"/><path id="_Caminho_174" data-name=" Caminho 174" class="cls-2" d="M313.6,239.6V239a.68.68,0,0,0-.4-.6H313v.6A.53.53,0,0,0,313.6,239.6Z" transform="translate(30.2 -1.53)"/><polygon id="_Caminho_175" data-name=" Caminho 175" class="cls-2" points="438.7 204.07 439 205.57 439.3 205.57 439.3 203.78 438.7 203.78 438.7 204.07"/><path id="_Caminho_composto_4" data-name=" Caminho composto 4" class="cls-2" d="M397.6,137.2h1.7a4.32,4.32,0,0,1,2.3,2.3q.3,0,.3.6h.3c0-1.2.2-1.7.6-1.7h.2c.6,0,.9,1.1.9,3.2-.1,0-.3.1-.3.2v.1h.9c0-1,.2-1.4.6-1.4h.6q.6,0,.6.9c1.7-.3,2.6-.7,2.6-1.1q-.9,0-.9-.6c.2-.8.6-1.2,1.1-1.1V138a2,2,0,0,1-1.1-.3,1.61,1.61,0,0,1-.9.3l-.6-.3c-.8,0-1.2.7-1.4,2h-.6a.68.68,0,0,1-.6-.4v-.7c0-.4.4-.6,1.1-.6l-.9-1.4c.3-1.7.8-2.6,1.4-2.6l-.3-.6v-.3h.6a.53.53,0,0,1,.6.6c-.1,0-.3.1-.3.2v.1c.4,0,.9.8,1.4,2.3.1,0,.3.1.3.2v.1a2.28,2.28,0,0,1,1.1-.3V134q-.9,0-.9-.6l.9-1.1V126h-1.1c-1.2,0-2.1,1-2.9,2.9a1.94,1.94,0,0,0-1.4.9,11.53,11.53,0,0,0-2.6-.3,5.69,5.69,0,0,1-1.1,2.9c1.5,0,2.3.2,2.3.6l-.9,1.1v.6c1,0,1.4.2,1.4.6v.3c-.5,1-.9,1.4-1.1,1.4H401a.68.68,0,0,1-.6-.4v-.2a1.61,1.61,0,0,0,.3-.9h-1.4q0,.9-.6.9h-.3l-.6-.3c0,.4-2,1.2-6,2.6-1.7.8-2.6,1.4-2.6,1.7h.3A71.78,71.78,0,0,0,397.6,137.2Zm9.2-4.3h.6a.53.53,0,0,1,.6.6l-.6.3a.68.68,0,0,1-.6-.4v-.5Zm-2.6-.3.3.6a.68.68,0,0,1-.4.6H404l-.3-.6c0-.5.1-.7.5-.6Z" transform="translate(30.2 -1.53)"/><polygon id="_Caminho_176" data-name=" Caminho 176" class="cls-2" points="426 131.88 425.2 131.28 424.9 131.88 425.5 132.18 426.9 132.18 426.9 131.57 426.3 131.88 426 131.88"/><rect id="_Caminho_177" data-name=" Caminho 177" class="cls-2" x="422.9" y="129.57" width="0.3" height="0.9"/><path id="_Caminho_178" data-name=" Caminho 178" class="cls-2" d="M387.2,145.2c0-.2.7-.5,2-.9V144h-.6l-4.3,2.3v.3h.9C385.2,146.4,385.9,145.9,387.2,145.2Z" transform="translate(30.2 -1.53)"/><path id="_Caminho_179" data-name=" Caminho 179" class="cls-2" d="M388.1,140.9v-.3h-.9l-2,1.4h.3A20.29,20.29,0,0,1,388.1,140.9Z" transform="translate(30.2 -1.53)"/><path id="_Caminho_180" data-name=" Caminho 180" class="cls-2" d="M394.7,132c0-.4.5-1,1.4-2h.9l.6.3v-1.2h-3.5v.9l.3,2Z" transform="translate(30.2 -1.53)"/><path id="_Caminho_181" data-name=" Caminho 181" class="cls-2" d="M408.8,200.5v.3l-.6.9h.3a.68.68,0,0,0,.6-.4v-1.4h-.6Z" transform="translate(30.2 -1.53)"/><rect id="_Caminho_182" data-name=" Caminho 182" class="cls-2" x="437.3" y="122.67" width="0.6" height="0.3"/><path id="_Caminho_183" data-name=" Caminho 183" class="cls-2" d="M187.3,199a3.7,3.7,0,0,1,.5-1.1l-.6.2a4.05,4.05,0,0,1-.5.9Z" transform="translate(30.2 -1.53)"/><path id="_Caminho_184" data-name=" Caminho 184" class="cls-2" d="M173.8,203.6V205a7.63,7.63,0,0,0,2.7-3.2l-.9.3Q174.55,203.6,173.8,203.6Z" transform="translate(30.2 -1.53)"/><polygon id="_Caminho_185" data-name=" Caminho 185" class="cls-2" points="203.4 201.78 203.4 201.47 203.1 201.57 203.1 201.78 203.4 201.78"/><rect id="_Caminho_186" data-name=" Caminho 186" class="cls-2" x="463.2" y="222.07" width="0.3" height="0.6"/><path id="_Caminho_187" data-name=" Caminho 187" class="cls-2" d="M192.7,201h.9l.9.6c1.3-3.3,2.7-4.9,4-4.9v-.9l-1.1.9H197q-.6,0-.6-.9h-.3c0,.5-1,1.7-2.9,3.5-1.3,1.9-2,3-2,3.5C191.5,202.7,192,202.2,192.7,201Z" transform="translate(30.2 -1.53)"/><path id="_Caminho_188" data-name=" Caminho 188" class="cls-2" d="M382.9,147.5v-.3h-.6c0,.4-.4.6-1.1.6v.6h.3A1.94,1.94,0,0,1,382.9,147.5Z" transform="translate(30.2 -1.53)"/><path id="_Caminho_189" data-name=" Caminho 189" class="cls-2" d="M336.6,233.8H336v.6a.68.68,0,0,0,.6-.4Z" transform="translate(30.2 -1.53)"/><rect id="_Caminho_190" data-name=" Caminho 190" class="cls-2" x="352.4" y="212.97" width="0.3" height="0.6"/><path id="_Caminho_191" data-name=" Caminho 191" class="cls-2" d="M495.4,223.3h-.6c-1,0-1.4.2-1.4.6a1.61,1.61,0,0,1,.3.9C494.8,224.8,495.4,224.3,495.4,223.3Z" transform="translate(30.2 -1.53)"/><rect id="_Caminho_192" data-name=" Caminho 192" class="cls-2" x="465.2" y="153.87" width="0.3" height="0.6"/><path id="_Caminho_193" data-name=" Caminho 193" class="cls-2" d="M453.7,171.8a.68.68,0,0,0,.6-.4v-.2h-.6Z" transform="translate(30.2 -1.53)"/><rect id="_Caminho_194" data-name=" Caminho 194" class="cls-2" x="483.3" y="157.37" width="0.6" height="0.3"/><path id="_Caminho_195" data-name=" Caminho 195" class="cls-2" d="M453.1,140.8a2.66,2.66,0,0,1-1.2-.3q0,.9-1.2.9a3.53,3.53,0,0,0,2.3,2c.3,0,.7-.4,1.2-1.1C453.7,142.2,453.3,141.7,453.1,140.8Z" transform="translate(30.2 -1.53)"/><rect id="_Caminho_196" data-name=" Caminho 196" class="cls-2" x="467.2" y="185.27" width="0.6" height="0.9"/><path id="_Caminho_197" data-name=" Caminho 197" class="cls-2" d="M453.1,191.1a1.61,1.61,0,0,1,.3-.9h-.3q-1.2.45-1.2.9Z" transform="translate(30.2 -1.53)"/><path id="_Caminho_198" data-name=" Caminho 198" class="cls-2" d="M759.4,223.8c-15.4,11.8-32.3,17.8-50.7,17.8H685.3V209.1h21.4c1.6,0,3.1-.1,4.7-.2l-40.5-12.6c-8.9,18.6-24.9,31.9-48,40.1-11.7,3.5-21.8,5.2-30.2,5.2H582V209.1h10.9c13.5,0,26.3-4.8,38.3-14.4a47.83,47.83,0,0,0,7.1-8.5l-66.9-20.8V220l-32.5-10.9V155.3l-12.6-3.9c-4.7,9.9-12.5,17.3-23.3,22.2l28.8,68H499l-27.5-64.8H456.3v64.9H423.8V119.6l-5.3-1.6-8,2.8v88.1c0,.6-6.2,2.8-18.7,6.6,0,.2-4.5,1.7-13.5,4.6l-.3-.6V134.9h-.3q-42.3,106.8-42.9,106.7H303.2l-.6-.3Q324,184,338.4,145.7l-25,8.7-21.7,58.5H270.4L256,174.2,201.8,193l-7.4,19.8h-21L170,204-30.2,273.4l478,186.8L868,257.5Z" transform="translate(30.2 -1.53)"/><rect id="_Caminho_199" data-name=" Caminho 199" class="cls-2" x="466.3" y="156.47" width="0.6" height="0.3"/><path id="_Caminho_200" data-name=" Caminho 200" class="cls-2" d="M436.4,204.3q.45,0,.9-1.2h-.9Z" transform="translate(30.2 -1.53)"/><path id="_Caminho_201" data-name=" Caminho 201" class="cls-2" d="M451.7,234.2h-.3c0,.9-.9,2.2-2.6,3.7a1.94,1.94,0,0,1-.9,1.4v.6h1.2a22.89,22.89,0,0,0,3.2-4.3C451.8,235.7,451.7,235.2,451.7,234.2Z" transform="translate(30.2 -1.53)"/><rect id="_Caminho_202" data-name=" Caminho 202" class="cls-2" x="482.1" y="231.57" width="0.3" height="0.9"/><path id="_Caminho_203" data-name=" Caminho 203" class="cls-2" d="M450.2,156.3a.53.53,0,0,0-.6.6v.3h.9a.68.68,0,0,0,.6-.4v-.2l-.6-.3h-.3Z" transform="translate(30.2 -1.53)"/><path id="_Caminho_204" data-name=" Caminho 204" class="cls-2" d="M450.2,208.9v.3h.6a2,2,0,0,1,1.7-1.2v-.3a.68.68,0,0,0-.4-.6h-.2C451.9,207.9,451.4,208.5,450.2,208.9Z" transform="translate(30.2 -1.53)"/><path id="_Caminho_205" data-name=" Caminho 205" class="cls-2" d="M452.8,218.7h.3a2.66,2.66,0,0,1,.3-1.2h-.6Z" transform="translate(30.2 -1.53)"/><rect id="_Caminho_206" data-name=" Caminho 206" class="cls-2" x="483.6" y="205.07" width="0.3" height="0.6"/><path id="_Caminho_207" data-name=" Caminho 207" class="cls-2" d="M449.9,215.3v.6h.3c.2,0,.7-.6,1.4-1.7v-.3A2.18,2.18,0,0,0,449.9,215.3Z" transform="translate(30.2 -1.53)"/><path id="_Caminho_208" data-name=" Caminho 208" class="cls-2" d="M450.2,164.3h.6v-.6Q450.2,163.85,450.2,164.3Z" transform="translate(30.2 -1.53)"/><path id="_Caminho_209" data-name=" Caminho 209" class="cls-2" d="M447,215v.6q.45,0,.9-1.2h-.3C447.2,214.5,447,214.6,447,215Z" transform="translate(30.2 -1.53)"/><path id="_Caminho_210" data-name=" Caminho 210" class="cls-2" d="M438.1,225.9h.3a.68.68,0,0,0,.6-.4v-.2h-.3Q438.1,225.45,438.1,225.9Z" transform="translate(30.2 -1.53)"/><path id="_Caminho_211" data-name=" Caminho 211" class="cls-2" d="M442.2,215.3l-.9-.6-1.4,1.7h-.3a2.38,2.38,0,0,1,.3,1.2h.9c0-.4.5-.9,1.4-1.4Z" transform="translate(30.2 -1.53)"/><path id="_Caminho_212" data-name=" Caminho 212" class="cls-2" d="M445.3,220.7v-.6a.53.53,0,0,0-.6.6Z" transform="translate(30.2 -1.53)"/><path id="_Caminho_213" data-name=" Caminho 213" class="cls-2" d="M440.4,222.7v.3h.3q.45,0,.9-.9l-.6-.3Z" transform="translate(30.2 -1.53)"/><path id="_Caminho_214" data-name=" Caminho 214" class="cls-2" d="M440.1,159.2h-.9v.6h.3a.68.68,0,0,0,.6-.4Z" transform="translate(30.2 -1.53)"/><path id="_Caminho_215" data-name=" Caminho 215" class="cls-2" d="M439.9,213.5h-.3l.3.6c.8,0,1.3-.8,1.7-2.3v-.6h-.3C441.1,212.8,440.6,213.5,439.9,213.5Z" transform="translate(30.2 -1.53)"/><path id="_Caminho_216" data-name=" Caminho 216" class="cls-2" d="M442.2,208.1c.2-.7,1.3-2,3.5-3.7a34.65,34.65,0,0,0,2.6-5.5H448c-1.2,0-2.6,1.9-4.3,5.8-1,0-1.6.3-1.7.9l.3.6-.9,1.2C441.3,207.5,441.6,207.8,442.2,208.1Z" transform="translate(30.2 -1.53)"/><path id="_Caminho_217" data-name=" Caminho 217" class="cls-2" d="M437.8,215.3h-.3a3.38,3.38,0,0,1-.6,1.2v.3a2.66,2.66,0,0,1,1.2.3Z" transform="translate(30.2 -1.53)"/><path id="_Caminho_218" data-name=" Caminho 218" class="cls-2" d="M437.8,159.7v.6h.6a.68.68,0,0,0-.4-.6Z" transform="translate(30.2 -1.53)"/><path id="_Caminho_219" data-name=" Caminho 219" class="cls-2" d="M437.8,222.2a2.66,2.66,0,0,1,.3-1.2h-.3q-.45,0-1.2,1.2Z" transform="translate(30.2 -1.53)"/><path id="_Caminho_220" data-name=" Caminho 220" class="cls-2" d="M447.9,213.5h.6V213C448.1,213,447.9,213.2,447.9,213.5Z" transform="translate(30.2 -1.53)"/><path id="_Caminho_221" data-name=" Caminho 221" class="cls-2" d="M447.9,167.2l1.7-2.3v-.3c-1,1-1.7,1.4-2,1.4l.3.6-.3.6Z" transform="translate(30.2 -1.53)"/><path id="_Caminho_222" data-name=" Caminho 222" class="cls-2" d="M437,157.7h.9v-.6h-.3Q437,157.25,437,157.7Z" transform="translate(30.2 -1.53)"/><rect id="_Caminho_223" data-name=" Caminho 223" class="cls-2" x="471.8" y="155.87" width="0.6" height="0.6"/><path id="_Caminho_224" data-name=" Caminho 224" class="cls-2" d="M444.2,141.3h-.6v.6a.68.68,0,0,0,.6-.4Z" transform="translate(30.2 -1.53)"/><path id="_Caminho_225" data-name=" Caminho 225" class="cls-2" d="M454,156a1.61,1.61,0,0,1,.9.3q0-.9.6-.9l.3.6.6-.3,1.2.6a1.61,1.61,0,0,0,.3-.9,2.72,2.72,0,0,1-.6-1.7q-.45,0-.9.9a.53.53,0,0,1,.6.6l-.6.3a1.61,1.61,0,0,1-.3-.9h-.3C454.6,155.1,454,155.6,454,156Z" transform="translate(30.2 -1.53)"/><path id="_Caminho_226" data-name=" Caminho 226" class="cls-2" d="M472.1,145.9h-2.9l.3.6v.6a7.58,7.58,0,0,1-1.4,1.4l.9.6C471,147.3,472.1,146.3,472.1,145.9Z" transform="translate(30.2 -1.53)"/><path id="_Caminho_227" data-name=" Caminho 227" class="cls-2" d="M467.5,164.3a.68.68,0,0,0-.4-.6h-.2a6.58,6.58,0,0,0-2.3,1.7h.9C465.5,165,466.1,164.6,467.5,164.3Z" transform="translate(30.2 -1.53)"/><path id="_Caminho_228" data-name=" Caminho 228" class="cls-2" d="M458.6,148c.9-.4,1.3-.8,1.4-1.1v-.3a2,2,0,0,1-1.4-.6.68.68,0,0,1-.4.6h-.5l-.9-.6h-.3a.53.53,0,0,0-.6.6A2.55,2.55,0,0,1,458.6,148Z" transform="translate(30.2 -1.53)"/><path id="_Caminho_229" data-name=" Caminho 229" class="cls-2" d="M443,235.1c0,1.1-1,2.7-2.9,4.9h1.2c0-.6.8-1.7,2.3-3.5l-.3-1.4Z" transform="translate(30.2 -1.53)"/><rect id="_Caminho_230" data-name=" Caminho 230" class="cls-2" x="497.4" y="154.77" width="0.3" height="0.6"/><path id="_Caminho_composto_5" data-name=" Caminho composto 5" class="cls-2" d="M449.6,224.8c.5-2.3,1.1-3.5,1.7-3.5V221h-.9c-.6,2.1-1.5,3.2-2.6,3.2-1.3,0-2.3,1.1-3.2,3.2-.9.3-1.7,1.9-2.6,4.6a2.88,2.88,0,0,0-2.3,3.2,5.53,5.53,0,0,1-2.6,1.4l-2.3,2.9a.68.68,0,0,1-.6-.4v-.2a7.84,7.84,0,0,0,1.7-3.5.67.67,0,0,1,.6-1.2v-.6h-.9c-1.1,2.9-2,4.4-2.8,4.4v.6l.3,1.4c.1,0,.3-.1.3-.2v-.1l2.9.3h.3a28.82,28.82,0,0,0,4.3-6.6c3.8-2.5,5.8-4,5.8-4.3A12.08,12.08,0,0,1,449.6,224.8Zm-6,6a.68.68,0,0,1-.6-.4v-.8h.6a.53.53,0,0,1,.6.6.44.44,0,0,1-.4.6Z" transform="translate(30.2 -1.53)"/><rect id="_Caminho_231" data-name=" Caminho 231" class="cls-2" x="496.2" y="159.37" width="0.6" height="0.3"/><path id="_Caminho_232" data-name=" Caminho 232" class="cls-2" d="M436.1,151.7h.6v-.6Q436.1,151.25,436.1,151.7Z" transform="translate(30.2 -1.53)"/><path id="_Caminho_233" data-name=" Caminho 233" class="cls-2" d="M452.2,145.9l-1.2-1.4c-1.5.5-2.3,1.3-2.3,2.6-1,.1-1.4.6-1.4,1.4h-.6q-.15,0-.9-.9a3.51,3.51,0,0,1-1.4.6v.3l.9,1.1Z" transform="translate(30.2 -1.53)"/><path id="_Caminho_234" data-name=" Caminho 234" class="cls-2" d="M438.7,156.9h1.7c0-.1.1-.7.3-1.7h-.3C439.3,155.9,438.8,156.4,438.7,156.9Z" transform="translate(30.2 -1.53)"/><path id="_Caminho_235" data-name=" Caminho 235" class="cls-2" d="M440.4,152.3h-.3l-1.4-.3c0,.5-.9,1-2.6,1.4a2,2,0,0,1,.6,1.4l3.5-2.3h.9l.9.6h.3v-.3h-.6v-.3c1.3-.9,2-1.8,2-2.6l-.9-.6C442.5,149.4,441.8,150.3,440.4,152.3Z" transform="translate(30.2 -1.53)"/><path id="_Caminho_236" data-name=" Caminho 236" class="cls-2" d="M445.3,140.8h-.6v.6a.68.68,0,0,0,.6-.4Z" transform="translate(30.2 -1.53)"/><rect id="_Caminho_237" data-name=" Caminho 237" class="cls-2" x="482.1" y="128.57" width="0.9" height="0.3"/><path id="_Caminho_238" data-name=" Caminho 238" class="cls-2" d="M450.5,135c0-.3,1.4-1.3,4.3-2.9V131a7.22,7.22,0,0,1-2,.9,1.61,1.61,0,0,0-.9-.3l.3.6v.3a.68.68,0,0,1-.4.6h-.5a.68.68,0,0,1-.6-.4v-.5q0-.6.9-.6v-.9h-.3a4.19,4.19,0,0,1-1.4.9v1.1a2.35,2.35,0,0,1,0,2.3Z" transform="translate(30.2 -1.53)"/><rect id="_Caminho_239" data-name=" Caminho 239" class="cls-2" x="475.2" y="132.07" width="0.6" height="0.3"/><rect id="_Caminho_240" data-name=" Caminho 240" class="cls-2" x="500.8" y="152.47" width="0.3" height="0.6"/><path id="_Caminho_241" data-name=" Caminho 241" class="cls-2" d="M453.1,210.7a2.38,2.38,0,0,1-1.2.3v.9h.6c.8,0,1.6-1.2,2.3-3.5C454.1,208.4,453.6,209.1,453.1,210.7Z" transform="translate(30.2 -1.53)"/><path id="_Caminho_242" data-name=" Caminho 242" class="cls-2" d="M454.2,158.9h.6v-.6C454.4,158.4,454.2,158.5,454.2,158.9Z" transform="translate(30.2 -1.53)"/><path id="_Caminho_243" data-name=" Caminho 243" class="cls-2" d="M477.5,147.4a2,2,0,0,1,.6-1.4v-.3l-1.7.3a2,2,0,0,1,.6,1.4Z" transform="translate(30.2 -1.53)"/><rect id="_Caminho_244" data-name=" Caminho 244" class="cls-2" x="499.7" y="153.37" width="0.3" height="0.6"/><path id="_Caminho_245" data-name=" Caminho 245" class="cls-2" d="M454.2,240h.6v-1.2h-.3A2.38,2.38,0,0,1,454.2,240Z" transform="translate(30.2 -1.53)"/><path id="_Caminho_246" data-name=" Caminho 246" class="cls-2" d="M454.2,215.5a.68.68,0,0,0,.6-.4v-.2h-.6Z" transform="translate(30.2 -1.53)"/><path id="_Caminho_247" data-name=" Caminho 247" class="cls-2" d="M454.2,215.8a.53.53,0,0,0-.6.6v.3a.68.68,0,0,0,.6-.4v-.5Z" transform="translate(30.2 -1.53)"/><rect id="_Caminho_248" data-name=" Caminho 248" class="cls-2" x="483.9" y="218.07" width="0.9" height="0.6"/><rect id="_Caminho_249" data-name=" Caminho 249" class="cls-2" x="485.9" y="155.87" width="0.6" height="0.3"/><rect id="_Caminho_250" data-name=" Caminho 250" class="cls-2" x="465.4" y="150.77" width="0.3" height="0.6"/><path id="_Caminho_251" data-name=" Caminho 251" class="cls-2" d="M435.8,230.5v-.6a.53.53,0,0,0-.6.6Z" transform="translate(30.2 -1.53)"/><path id="_Caminho_252" data-name=" Caminho 252" class="cls-2" d="M491.3,218.7a.92.92,0,1,0-.4-1.8c-.1,0-.2,0-.2.1s-.1.3-.2.3h-.1a3.51,3.51,0,0,1,.6,1.4Z" transform="translate(30.2 -1.53)"/><path id="_Caminho_composto_6" data-name=" Caminho composto 6" class="cls-2" d="M474.1,151.1a4,4,0,0,0-2-.9,1.61,1.61,0,0,1-.3.9,5.93,5.93,0,0,0,1.4,2.3c.3,0,1-.9,2-2.6h.3v-.6h-.3Zm-1.4.6-.3-.6.6-.3.3.6Z" transform="translate(30.2 -1.53)"/><rect id="_Caminho_253" data-name=" Caminho 253" class="cls-2" x="526.2" y="219.17" width="0.6" height="0.3"/><path id="_Caminho_composto_7" data-name=" Caminho composto 7" class="cls-3" d="M291.7,212.8l21.7-58.5L256,174.2l14.4,38.6ZM311,156.4h.3v.6H311Zm-.6,1.2h.3l-.3,1.4c-1,.6-1.4,1.1-1.4,1.4l-.6-.3a5.46,5.46,0,0,1,2-2.5Zm-21.8,24.2h.3v.6h-.3Zm-14.4,19.5-.3-.6,1.1-.9v.6c-.4.5-1,2.4-1.7,5.8H273a2.66,2.66,0,0,0-.3-1.2c.5-.2,1-1.5,1.5-3.7Zm-6.6-12.4h-.3v-.6h.3Zm1.4-4.3h-.3v-.9h.3Z" transform="translate(30.2 -1.53)"/><path id="_Caminho_composto_8" data-name=" Caminho composto 8" class="cls-3" d="M194.5,212.8l7.4-19.8-3.3,1.2-.9,1.1h-.9V195l.2-.3-9.1,3.2a1.61,1.61,0,0,0-.5,1.1h-.6a4.05,4.05,0,0,0,.5-.9l-10.7,3.7a8.42,8.42,0,0,1-2.7,3.2v-1.4c.5,0,1.1-.5,1.9-1.5l-2.4.8v.3h-.3V203l-2.8,1,3.4,8.8Zm-1.2-13.5c1.9-1.8,2.9-2.9,2.9-3.5h.3q0,.9.6.9h.3l1.1-.9v.9c-1.3,0-2.7,1.6-4,4.9l-.9-.6h-.9c-.7,1.2-1.2,1.7-1.4,1.7C191.3,202.3,192,201.2,193.3,199.3Zm-4.9,10.9a.94.94,0,0,0,1.1-.8v-.3h.3l.6.3c-.4,1.2-.9,1.9-1.4,2h-.6v-1.2Z" transform="translate(30.2 -1.53)"/><path id="_Caminho_254" data-name=" Caminho 254" class="cls-1" d="M404.5,133.1l-.3-.6q-.45,0-.6.6l.3.6a.68.68,0,0,0,.6-.4Z" transform="translate(30.2 -1.53)"/><path id="_Caminho_255" data-name=" Caminho 255" class="cls-1" d="M407.4,133.7l.6-.3q0-.45-.6-.6h-.6v.3a.68.68,0,0,0,.4.6Z" transform="translate(30.2 -1.53)"/><path id="_Caminho_composto_9" data-name=" Caminho composto 9" class="cls-3" d="M303.2,241.6h31.6q.6,0,42.9-106.7h.3v84.6l.3.6c9-2.9,13.5-4.4,13.5-4.6,12.5-3.8,18.7-6,18.7-6.6V120.8l-72,25Q324.1,184,302.7,241.4Zm87.7-90h-.6v-.3h.6Zm.3-8.1h-.6q0-.45.6-.6Zm4.3,65H395v-.3h.6Zm.3-54.3a4.33,4.33,0,0,0-2,1.1h-.3a1.61,1.61,0,0,0-.3-.9,3.61,3.61,0,0,0,2-.6h.6Zm1.5,53.8h-.6v-.3h.6Zm.3-3.2H397v-.3h.6Zm-.3-51.5h-.6V153a1.61,1.61,0,0,0,.9-.3Zm0-9.5H397l-2.3,1.4-1.1-.6q-.9.45-.9.9c-.8-.5-1.1-.9-1.1-1.1.5,0,2.1-.7,4.9-2a1.8,1.8,0,0,0,2-1.5v-.5h.3c0,.8.2,1.1.6,1.1h.3c.4,0,.6-.6.6-1.7h.3v.6a3.42,3.42,0,0,0,2.6,1.4v.6h-.6a28.42,28.42,0,0,1-4.9,1.7.19.19,0,0,0-.1-.3c-.2,0-.2-.1-.3,0Zm7.2,3.2-1.4-.3c-1.3.4-2.5.9-3.7,1.4a1.61,1.61,0,0,0-.3-.9l.9-.9.6.3h.3a40.24,40.24,0,0,0,6-2.6h.6c-.2,1-1.1,1.9-3,3Zm3.7,36.2h.6v.8a2.49,2.49,0,0,0-1.7.3v-.6a1.61,1.61,0,0,0,1.1-.5Zm-2-24.7c0,.3-.7.9-2,1.7l-.6-.3.3-.6c1-.2,1.4-.6,1.4-1.1h.3Zm-3.4-8.6-2.6,2a3.19,3.19,0,0,0-1.4-.3c2-1.2,3.3-1.8,4-1.7Zm-4.4,54.3h-.3v-.6h.3Zm2.9,6.7a2.72,2.72,0,0,0-1.7.6h-.3q-.45,0-.6-.6a.78.78,0,0,0,.9-.6v-.2h1.7ZM401,161q0-.45.6-.6h.9c0,.3-.4.6-1.1.9-.1-.2-.2-.3-.4-.3Zm6,46.9h-.9c-.6,0-1,.4-1.1,1.2a5.67,5.67,0,0,0-2.3,1.2h-.3q-.45,0-.6-.6c1,0,1.4-.4,1.4-1.2s1-1.6,2.9-2.6l1.4.3a3.37,3.37,0,0,0-.5,1.7Zm-2.3-4.9q0-.45-.6-.6c0-.2.7-.7,2-1.4a2.72,2.72,0,0,0,1.7.6c.1.3-.9.8-3.1,1.4Zm4.3,4h-.3l-.3-1.4v-.3h.6Zm0-6a.68.68,0,0,1-.4.6h-.5l.6-.9v-.3l-.3-.6h.6Zm-2-76.8h.6v.3H407Zm-12.9,4.9h3.5v1.1l-.6-.2h-.9c-1,1-1.4,1.6-1.4,2h-.3l-.3-2Zm2.5,4v.6h-1.4l-.6-.3.3-.6.9.6h.3Zm-4-2h.4v.9h-.3Zm-.8,7.2c4-1.3,6-2.2,6-2.6l.6.3h.3q.6,0,.6-.9h1.4a1.61,1.61,0,0,1-.3.9.68.68,0,0,0,.4.6h.8c.3,0,.7-.5,1.1-1.4v-.3c0-.4-.5-.6-1.4-.6v-.6l.9-1.1c0-.4-.8-.6-2.3-.6a5,5,0,0,0,1.2-2.8,11.53,11.53,0,0,1,2.6.3,2.16,2.16,0,0,1,1.4-.9c.8-1.9,1.7-2.9,2.9-2.9h1.1V132l-.9,1.1q0,.6.9.6V136a2,2,0,0,0-1.1.3c0-.1-.1-.3-.2-.3h-.1c-.5-1.5-1-2.3-1.4-2.3,0-.1.1-.3.2-.3h.1q0-.45-.6-.6h-.6v.3l.3.6c-.7,0-1.1.9-1.4,2.6l.9,1.4c-.8,0-1.1.2-1.1.6v.6a.68.68,0,0,0,.4.6h.6c.2-1.3.7-2,1.4-2l.6.3a1.61,1.61,0,0,0,.9-.3,2.28,2.28,0,0,0,1.1.3v.6c-.6,0-1,.4-1.1,1.1q0,.6.9.6c0,.4-.9.8-2.6,1.1q0-.9-.6-.9H405c-.4,0-.6.5-.6,1.4h-.9c0-.1.1-.3.2-.3h.1c0-2.1-.3-3.2-.9-3.2h-.3c-.4,0-.6.6-.6,1.7h-.3q0-.6-.3-.6a4.32,4.32,0,0,0-2.3-2.3h-1.7a31.89,31.89,0,0,1-8,2.9h-.3a9.27,9.27,0,0,1,2.7-1.6Zm-4.6,2.3h.9v.3a20.29,20.29,0,0,0-2.6,1.1h-.3Zm-2.9,5.7,4.3-2.3h.6v.3c-1.3.4-2,.7-2,.9-1.3.7-2,1.1-2,1.4h-.9Zm-3.2,1.5c.8,0,1.1-.2,1.1-.6h.6v.3a1.94,1.94,0,0,0-1.4.9h-.3Zm-45.1,86h.6a.68.68,0,0,1-.4.6H336Zm-13.8-19.3h.3v.6h-.3Zm0,10.7v1.4l-.9,2c0,1.2-.4,1.7-1.1,1.7v1.4a7,7,0,0,0-1.1,3.7h-.3a2.49,2.49,0,0,0-.3-1.7c.2,0,.3-.8.3-2.3l2-2.3v-.3q0-.45-.6-.6a11.52,11.52,0,0,0,1.4-3.2Zm-2-21.9v.6h-.6q0-.45.6-.6Zm-1.7,1.5q0-.45.6-.6v.8h-.6Zm.5,6h.6l-.9,1.2h-.3a2.27,2.27,0,0,0,.6-1.2Zm-1.1,7.4h.6a2.49,2.49,0,0,0,.3,1.7q-.3,0-.3.9h-.6a2.66,2.66,0,0,0-.3-1.2,2.9,2.9,0,0,0,.3-1.4ZM313,233.5h.6v.9q-.45,0-.6-.6Zm0,1.5a.68.68,0,0,1,.6.4v.8q-.45,0-.6-.6Zm0,1.7a.68.68,0,0,1,.6.4v.8q-.45,0-.6-.6Zm0,1.7a.68.68,0,0,1,.6.4v.8q-.45,0-.6-.6Zm-2.6.6a.68.68,0,0,1,.6.4v.2h-.6Zm-3.7-3.2a1.61,1.61,0,0,0,.3.9c-.1,0-.3.1-.3.2v1l.6.9v1.4h-2.6c1-2.9,1.6-4.4,2-4.4Z" transform="translate(30.2 -1.53)"/><rect id="_Caminho_256" data-name=" Caminho 256" class="cls-1" x="472.48" y="151.01" width="0.6" height="0.6" transform="translate(12.46 225.99) rotate(-26.58)"/><path id="_Caminho_257" data-name=" Caminho 257" class="cls-1" d="M443.6,229.7H443v.6c0,.3.3.5.7.5a.47.47,0,0,0,.5-.5A.53.53,0,0,0,443.6,229.7Z" transform="translate(30.2 -1.53)"/><path id="_Caminho_258" data-name=" Caminho 258" class="cls-1" d="M427.5,153.7h.6q.9-.45.9-.9v-.3q0-.45-.6-.6h-.9q-.45,0-.6.6v.6a.68.68,0,0,0,.4.6Z" transform="translate(30.2 -1.53)"/><path id="_Caminho_composto_10" data-name=" Caminho composto 10" class="cls-3" d="M456.2,241.7V176.8h15.2l27.5,64.9h32.6l-28.8-68c10.8-4.9,18.6-12.3,23.3-22.2l-35.5-11a21.73,21.73,0,0,1-13.1,3.9H456.2V129.8l-32.5-10.1V241.8h32.5Zm49.5-2.6h-.3v-.6h.3Zm.3-8-.6-.3a8.18,8.18,0,0,0,1.2-2l.6.3Zm9.2,7.8c-1,0-1.5-.3-1.7-.9v-.3q0-.45.6-.6h2v.3q-.9,0-.9,1.5Zm.9,1.1q-.45,0-.6-.6v-.3a2.66,2.66,0,0,0,1.2-.3l.9,1.2Zm3.1-4.6h-4v-.6c1,0,1.4-.4,1.4-1.2h.6a1.61,1.61,0,0,0,.3.9,2.66,2.66,0,0,0,1.2-.3l.6.3,1.2-.3a9.08,9.08,0,0,0-.3,2.3h-.3c-.1-.7-.3-1.1-.7-1.1Zm4.6,3.5v.3a2.66,2.66,0,0,0-1.2.3c0-.1-.1-.3-.2-.3h-.7l-.6.3c0-.1-.1-.3-.2-.3h-.7l-.6.3a.67.67,0,0,1,.6-1.2l1.2.3.6-.3.6.3.6-.3a.55.55,0,0,1,.6.4c.1.1.1.1,0,.2Zm-4.6-22.2h.3v1.2H519a5,5,0,0,0,.2-1.2Zm2.6,12.1c.4,2.1.9,3.2,1.4,3.2v.3a.68.68,0,0,1-.4.6h-.2V232h-.3l-.6.3.6.9h-1.2l.3-.6V232q-.45-.9-.9-.9h-3.2a3.61,3.61,0,0,0-2-.6v-.9h1.2c1-1.2,1.7-1.7,2-1.7.2.4,1.2.6,3.3.9Zm-3.7-3.8h.6a.68.68,0,0,1-.4.6h-.2V225Zm-.9,1.2h.6a.68.68,0,0,1-.4.6h-.2v-.6Zm-2-1.5a2,2,0,0,0,1.4.6v.6h-.3c-1,0-1.4.6-1.4,1.7h-.3a2.66,2.66,0,0,0-.3-1.2,2.59,2.59,0,0,0,.9-1.7Zm-.2,9.8q-.45.9-.9.9l-1.2-.9.3-.6v-.3a2,2,0,0,0-1.2-2,1.61,1.61,0,0,0,.3-.9l.9.6h.6v-.6h.3v.3l-.6.9v1.4q.15.75,1.5,1.2Zm-1.5-23.9h.3v.6h-.3Zm0,19.3h-1.2v-.3h1.2Zm-1.4-4h.3v.3a2,2,0,0,0-.6,1.4h-1.4c1.1-.9,1.7-1.5,1.7-1.7Zm-2.9,3.4a2.38,2.38,0,0,0,1.2.3v.3H509Zm-1.7,1.5q.45-.9.9-.9v.6a.68.68,0,0,1-.4.6h-.5Zm-1.8-6.6c.8,0,1.2-.5,1.2-1.4h.3v.6a2.28,2.28,0,0,0-.6,1.2h-.9Zm-4.3-6.9h.3v1.2h-.6a2.66,2.66,0,0,0,.3-1.2Zm-.8,15c0-.9.8-1.8,2.3-2.6.7-2.1,1.7-3.2,3.2-3.2,0,.1.1.3.2.3h.1a24.94,24.94,0,0,0-2.9,4.3v.6l.3.6q-.3,0-.3.9a13.56,13.56,0,0,0-2.9-.6Zm-71.7-2c-.5,1.2-.9,1.7-1.1,1.7v-1.7l.3-.6a1.61,1.61,0,0,0,.9.3v.3Zm-1.4-3.8v-.6h.3v.6Zm.3-23.3v-.6q0-.45.6-.6h.3v.3q-.45.9-.9.9Zm.8,22.5h-.3q0-.45.6-.6h.3a.63.63,0,0,1-.5.6c0-.1,0-.1-.1,0Zm3.8,11.7a3,3,0,0,0-1.7,2.6h-1.4a12.23,12.23,0,0,1,2.9-5.2c1.6-2.9,2.5-4.3,2.9-4.3l-2.3,5.5.3.6c-.5,0-.7.2-.7.8Zm-2-9.4v-.3q.45-.9.9-.9v.3a3.61,3.61,0,0,1-.9.9Zm2.6-3.8v-.6h.3v.6Zm8.3,15.8h-1.2c1.9-2.2,2.9-3.8,2.9-4.9h.3l.3,1.4C442.1,238.3,441.3,239.4,441.3,240Zm-.3-6.6a32.58,32.58,0,0,1-4.3,6.6h-.3l-2.9-.3c0,.1-.1.3-.2.3h-.1l-.3-1.4V238c.9,0,1.8-1.4,2.9-4.3h.9v.6a.67.67,0,0,0-.6,1.2h0c0,.6-.6,1.7-1.7,3.5a.68.68,0,0,0,.4.6h.2l2.3-2.9a8.16,8.16,0,0,0,2.6-1.4,2.88,2.88,0,0,1,2.3-3.2c.9-2.7,1.7-4.3,2.6-4.6.8-2.1,1.9-3.2,3.2-3.2,1.1,0,2-1.1,2.6-3.2h.9v.3c-.6,0-1.2,1.2-1.7,3.5a11.3,11.3,0,0,0-2.9,4.3C446.8,229.4,444.8,230.8,441,233.4Zm-5.2-3.5v.6h-.6q0-.45.6-.6Zm-.6-77.1v-.6h.3v.6Zm0,3.2H435v-.6h.3Zm6.7,49.5c.1-.6.7-.9,1.7-.9,1.7-3.8,3.1-5.8,4.3-5.8h.3a30.58,30.58,0,0,1-2.6,5.5c-2.1,1.8-3.3,3-3.5,3.7q-.9-.45-.9-.9l.9-1.2Zm-.3-47.5v-.6h.6v.6Zm6,8.1c.3,0,1-.5,2-1.4v.3l-1.7,2.3h-.3l.3-.6Zm.8,46.9v.6h-.6q.15-.6.6-.6Zm-.5,1.4q-.45,1.2-.9,1.2V215q0-.45.6-.6Zm-2.6,5.7v.6h-.6a.74.74,0,0,1,.6-.6Zm-4.6-2.6h-.9a2.66,2.66,0,0,0-.3-1.2h.3l1.4-1.7.9.6v.9c-.9.5-1.4,1-1.4,1.4Zm.8,4.6q-.45.9-.9.9h-.3v-.3l.6-.9Zm0-10.9v.6c-.4,1.5-1,2.3-1.7,2.3l-.3-.6h.3c.7,0,1.2-.8,1.4-2.3Zm-2.3-51.5v-.6h.9a.68.68,0,0,1-.4.6h-.5Zm1.2-2.9h-1.7c0-.4.6-1,1.7-1.7h.3c-.2,1-.3,1.6-.3,1.7ZM439,225.3a.68.68,0,0,1-.4.6h-.5q0-.45.6-.6Zm-1.2-4.3h.3a2.38,2.38,0,0,0-.3,1.2h-1.2Q437.5,221,437.8,221Zm-.8-4.3v-.3a2.28,2.28,0,0,0,.6-1.2h.3l.3,1.7A5,5,0,0,0,437,216.7Zm.9-56.4v-.6a.68.68,0,0,1,.6.4v.2h-.6Zm0-2.6H437q0-.45.6-.6h.3Zm-.3,29.1v.9H437v-.9Zm-.3,16.4q-.45,1.2-.9,1.2v-1.2Zm-.6-44.9h-.6V158h.6Zm17,.9h-.6v-.3h.6Zm.6,12.1a.68.68,0,0,1-.4.6h-.2v-.6Zm-1.2-27.9a3.53,3.53,0,0,1-2.3-2q1.2,0,1.2-.9a2.38,2.38,0,0,0,1.2.3c.2,1,.6,1.4,1.2,1.4a3.13,3.13,0,0,1-1.3,1.2Zm0,46.8h.3a1.61,1.61,0,0,0-.3.9H452c0-.3.3-.6,1.1-.9Zm.6,16.4v.6h-.3v-.6Zm-1.1,1.2v.3a1.63,1.63,0,0,0-1.7,1.2h-.6V209c1.2-.5,1.7-1.1,1.7-1.7.3-.1.5.1.6.5-.1-.1-.1,0,0,0Zm-.9,6v.3c-.7,1.2-1.2,1.7-1.4,1.7H450v-.6a2.43,2.43,0,0,1,1.7-1.4Zm-1.4-49.5q0-.45.6-.6v.6Zm.2-7.2h-.9v-.3q0-.45.6-.6h.3l.6.3c.1.3-.1.5-.4.6,0,.1-.1.1-.2,0ZM449.1,240h-1.2v-.6a4.19,4.19,0,0,0,.9-1.4c1.7-1.6,2.6-2.8,2.6-3.7h.3c0,1,.2,1.4.6,1.4A22.89,22.89,0,0,1,449.1,240Zm3.1-6h-.3v-.9h.3Zm.9-15.2h-.3v-1.2h.6a2.13,2.13,0,0,0-.3,1.2Zm1.4.8v.6h-.9v-.6Zm-.8-2.9v-.3q0-.45.6-.6v.3a.63.63,0,0,1-.5.6Zm1.1,23.3h-.6a2.38,2.38,0,0,0,.3-1.2h.3Zm-.6-24.4V215h.6a.63.63,0,0,1-.5.6Zm-1.7-3.8h-.6V211a2.66,2.66,0,0,0,1.2-.3c.5-1.5,1.1-2.3,1.7-2.3-.7,2.3-1.5,3.4-2.3,3.4Zm2.3-52.9h-.6q0-.45.6-.6Zm1.4-1.1h-.6v-.3h.6Zm13.6-2.3h-.3v-.6h.3Zm1.1-.9h-.3V154h.3Zm4.6-3.7h-.3c-1,1.7-1.7,2.6-2,2.6a4.25,4.25,0,0,1-1.4-2.3,1.61,1.61,0,0,0,.3-.9,4,4,0,0,1,2,.9l1.2-.9h.3v.6ZM496,220.7h.6v.3H496Zm-1.2,2.6h.6c0,1-.6,1.4-1.7,1.4a1.61,1.61,0,0,0-.3-.9c0-.2.4-.4,1.4-.5Zm-4-6.3a.89.89,0,1,1,.8,1.6c-.1,0-.1.1-.2.1h-.3a3.51,3.51,0,0,0-.6-1.4.32.32,0,0,0,.3-.3Zm-12.6-71.4v.3a2,2,0,0,0-.6,1.4H477a2,2,0,0,0-.6-1.4Zm-2.9,2q0,.9,1.2.9l-.6,1.4-2-1.1c0-.5.5-.9,1.4-1.2Zm-5.7-.5v-.6l-.3-.6h2.9c0,.3-1.1,1.4-3.2,3.2l-.9-.6c.9-.8,1.4-1.3,1.5-1.4Zm-2.3,9.2h.3v.6h-.3Zm-1.2,4.6h.6v.3H466Zm.9,2.9a.68.68,0,0,1,.6.4v.2c-1.3.3-2,.7-2,1.1h-.9a5.77,5.77,0,0,1,2.3-1.7Zm-10.4-17.9h.3l.9.6h.2a.68.68,0,0,0,.6-.4v-.2a2,2,0,0,0,1.4.6v.3c-.1.4-.6.8-1.4,1.1a2.71,2.71,0,0,0-2.6-1.4q0-.45.6-.6Zm-.6,8.7a1.61,1.61,0,0,0,.3.9l.6-.3q0-.45-.6-.6.45-.9.9-.9a2.72,2.72,0,0,0,.6,1.7,1.61,1.61,0,0,1-.3.9l-1.2-.6-.6.3-.3-.6q-.6,0-.6.9l-.9-.3c0-.4.6-.9,1.7-1.4Zm-4-24.5h.9v.3H452Zm-2,2.6v-1.1a1.94,1.94,0,0,0,1.4-.9h.3v.9q-.9,0-.9.6v.3a.68.68,0,0,0,.4.6h.5a.68.68,0,0,0,.6-.4v-.5l-.3-.6a1.61,1.61,0,0,1,.9.3,7.22,7.22,0,0,0,2-.9v1.1c-2.9,1.6-4.3,2.5-4.3,2.9H450a2.35,2.35,0,0,0,0-2.3Zm-4.9.8h.6v.3H445Zm-.3,7.2h.6a.68.68,0,0,1-.4.6h-.2Zm-.2,7.5a3.51,3.51,0,0,0,1.4-.6q.6.9.9.9h.6a1.36,1.36,0,0,1,1.4-1.4c0-1.2.8-2.1,2.3-2.6l1.2,1.4-6.9,3.7-.9-1.1Zm-.9-6.9h.6a.68.68,0,0,1-.4.6h-.2Zm-2,11.2v.3h.6v.3H442l-.9-.6h-.9l-3.5,2.3a2,2,0,0,0-.6-1.4c1.7-.4,2.6-.9,2.6-1.4l1.4.3h.3c1.3-1.9,2.1-2.9,2.3-2.9l.9.6a4.3,4.3,0,0,1-2.1,2.6Zm-5.5-.8q0-.45.6-.6v.6Zm4.6-8.1v.6a1.61,1.61,0,0,0-.9.3c0-.1-.1-.3-.2-.3h-.1q0-.45.6-.6Zm-.3-6.6a4.67,4.67,0,0,0,.3-1.7h.9v.6l-.9,1.1Zm2-2.3h.9v.6a1.61,1.61,0,0,0-.9-.3Zm-3.7-.9c1.7-1.3,2.6-2.2,2.6-2.6h.3v1.1c-1.3,1-2,1.7-2,2h-1.2Zm-.6,2.9c0,.6.5.9,1.4.9q0,.45-1.2.9c0-.2-.5-.3-1.4-.3v-.3c.5-.8.8-1.2,1.2-1.2ZM437,135h.3v.3l-2.3,1.1-.3-.6A15.54,15.54,0,0,1,437,135Zm-2.9-3.5v.6q-.9,0-.9.6H433c.4-.8.8-1.2,1.1-1.2Zm.3,15.3v.6h-.3v-.6Zm-2.6-13v.6h-.6q0-.45.6-.6Zm-2,9h.6v.3h-.6Zm-1.1-21h.6v.3h-.6Zm-3.5,23a7.79,7.79,0,0,0,3.7-.9,4.92,4.92,0,0,0,.6,1.7l-1.1,1.4a3.75,3.75,0,0,0-3.2-2Zm0,4.6a4.19,4.19,0,0,0,.9-1.4l.6.3a2.41,2.41,0,0,1-1.4,1.4Zm0,2.6a1.61,1.61,0,0,0,.9-.3c0,.1.1.3.2.3h.4a.68.68,0,0,0,.6-.4v-.2l4-2.6q0,.9.6.9h.3c1.3-1.2,2-1.8,2-2,.9.4,1.3.8,1.4,1.1-1.8,1.7-2.9,2.6-3.5,2.6l-5.2,3.5-1.7-2.3Zm0,35.6q.45-.9.9-.9h.3v1.2c-.5.8-.9,1.2-1.1,1.2v-1.5ZM426,240h-.9v-.9Q426,239.55,426,240Z" transform="translate(30.2 -1.53)"/><rect id="_Caminho_259" data-name=" Caminho 259" class="cls-1" x="597.03" y="236.01" width="0.6" height="0.6" transform="translate(-12.38 290.96) rotate(-26.6)"/><path id="_Caminho_composto_11" data-name=" Caminho composto 11" class="cls-3" d="M571.3,220V165.4l-32.5-10.1v53.8Zm-24.4-21.9q-.45,0-.6-.6V197q0-.45.6-.6ZM548,195h-.6q-.45,0-.6-.6c.8-1.3,1.5-2,2-2a3.4,3.4,0,0,0,.3,2A2.38,2.38,0,0,0,548,195Zm3.2,15.2-.6-.3q0-.45.6-.6Zm-.9-4h-.6a17.27,17.27,0,0,0,2-3.2c1.3-.4,2-1,2-1.7h.6v.3c-.6,1.9-1.5,2.9-2.9,2.9Zm-.9-2.5V203h.3v.6Zm.6-2.9h.6v.6a.9.9,0,0,1-.6-.6Zm2,1.1v-.6h.3v.6Zm1.8,5.2h-.9a3.19,3.19,0,0,0,.3-1.4,4.67,4.67,0,0,0,1.7.3c-.5.7-.8,1.1-1.1,1.1Zm1.4-21.3a.68.68,0,0,1-.4.6h-.5q.45-.9.9-.9Zm1.4,1.5a1.61,1.61,0,0,0-.9-.3v-.6a1.61,1.61,0,0,0,.9.3ZM559,193h-.3c0-1.3-.5-2-1.4-2v-.3c.7,0,1.7-.9,2.9-2.6a2,2,0,0,0,1.4.6v.3A4.38,4.38,0,0,0,559,193Zm3.2,20.1q-.45,0-.6-.6h.9Zm.2-5.4a2.38,2.38,0,0,0,.3-1.2h.6v.3l-.6.9Zm2,4.6h-1.2v-.9a2.38,2.38,0,0,0,1.2.3Zm-.2-23.6a4.56,4.56,0,0,1,1.7-2.9l-.9-1.2.3-.6c.6.8,1.1,1.2,1.4,1.2,0,.8-.8,1.9-2.3,3.5Zm2.3-6.4v-1.2h.3v1.2Zm-.3,14.1q0-.9-.6-.9a3.19,3.19,0,0,0,.3-1.4c.8,1,1.3,1.4,1.4,1.4,0,.4-.4.6-1.1.9Zm1.1,1.2.3-1.7h.3l.3,1.4a1.61,1.61,0,0,0-.9.3Zm2.6,5.5a.68.68,0,0,1-.4.6h-.8v-1.2a2.38,2.38,0,0,0,1.2.3Zm0-15v1.4c-.6,1.2-1.2,1.9-1.7,2h-.6l-.6-.3c1.1-2.1,2.1-3.1,2.9-3.1Zm-2.9-3.2h-.3v-.6h.3Zm-1.7-5.7,1.4.9v.3c-2.6,1-3.9,1.7-4,2.3v1.2l.9,1.2v.6a.78.78,0,0,0-.9.6v.2l-2,.9h-.3c1.6-3.7,2.7-5.9,3.2-6.3,1.1-.7,1.7-1.3,1.7-1.9Zm-3.8-9.2h.3a2,2,0,0,0,.6,1.4.68.68,0,0,1-.4.6h-.2l.3,1.4a1.61,1.61,0,0,0-.9.3l-.9-1.2C561.2,172.6,561.5,171.7,561.5,170Zm-1.1,6.9-.3.6q-.45,0-.6-.6Zm1.1,1.7v.3c0,.3-1,1.2-2.9,2.6l.6.9v.9a2.72,2.72,0,0,1-.6,1.7,16.32,16.32,0,0,1-2-1.7c-.5,0-.8.5-.9,1.4h-.3a3.19,3.19,0,0,0-.3-1.4q1.2,0,1.2-.9c1.3-.7,2-1.3,2-1.7a1.61,1.61,0,0,0-.3-.9,5.31,5.31,0,0,0,3.5-1.2Zm-4.9-2-.3,1.4h-.9c.6-.9,1-1.4,1.2-1.4Zm-8-2-.3-1.7v-.6h.3a3.25,3.25,0,0,0,2,3.2,3.68,3.68,0,0,1-2,3.2c0-1.2-.4-1.7-1.2-1.7.1-1.7.4-2.4,1.2-2.4Zm-4.9,5.8c1.2,0,1.7-.5,1.7-1.4h.3c0,.5.5,1.1,1.4,2l.6-.3c0,.1.1.3.2.3h.1a11.26,11.26,0,0,0,6.3-3.5l-.3,1.4c0,.4.5.6,1.4.6v.3l-.6.9c-1-.7-1.4-1.2-1.4-1.4-1.4,0-2.7,1.1-3.7,3.5l-1.4-1.2h-.9c-1.2,0-2,.9-2.3,2.6q-.45,0-.6-.6c-.1-.4.2-.5.6-.6a3,3,0,0,0-1.4-2.3Zm-1.4,9.5h.3v.6h-.9q0-.75.6-.6Zm-1.2-19h.3v.3l-.3,1.4h-.9v-.3a2.43,2.43,0,0,0,.9-1.4Z" transform="translate(30.2 -1.53)"/><path id="_Caminho_composto_12" data-name=" Caminho composto 12" class="cls-3" d="M592.9,209.1H582v32.5h10.6c8.4,0,18.5-1.7,30.2-5.2,23.1-8.2,39.1-21.5,48-40.1l-30.5-9.5v.4H640v-.5l-1.8-.6a47.83,47.83,0,0,1-7.1,8.5C619.2,204.3,606.4,209.1,592.9,209.1Zm37.7,1.1h.3v.9h-.3Zm-.6,1.5h.3v.9H630Zm-.6,1.4h.3v.6h-.3Zm-23.6-3.4h.3v1.2h-.3Zm-4.3,8.6h.3v.6h-.3Zm-1.4,1.4h.9q-.45.9-.9.9Zm-2.6,2h.6v.6h-.6Zm-4.3-10h.3l.3,1.4a.78.78,0,0,0-.9.6v.2c-.4,0-.7-.6-.9-1.7a1.66,1.66,0,0,0,1.2-.5Zm-9.5,27.6h-.3v-.9h.3Zm1.1-3.5q-.9,0-.9,1.2h-.6a1.61,1.61,0,0,1,.3-.9l-.3-1.7v-.3a3.51,3.51,0,0,0,1.4.6v1.1Zm-1.4-11.5V224l.9-1.2.6.3a2.77,2.77,0,0,1-1.5,1.2Zm.3-2.3v-1.2a4.92,4.92,0,0,0,1.7-.6v.3c-.9.6-1.4,1.1-1.4,1.4Zm2.3,14.4h-.6v-.3h.6Zm0-21.9-.9-.6h-.3q-.45,0-.6.6l.3.6-.9.6h-.3v-2q0-.45.6-.6h.6l.9.6,1.4-.3Zm1.4-1.4h-.6v-.3h.6Zm1.5,14.7c2.1-1.1,3.2-2.1,3.2-2.9,1.7-.8,2.6-1.3,2.6-1.7l-.3-.6.6-.3a2.84,2.84,0,0,0,1.7.9v1.7q-.9,0-1.2,1.2l-.9-.6h-.9q-.45,0-.6.6h-.9c-.5,0-1.6.9-3.2,2.6a1.25,1.25,0,0,0-.1-.9Zm2.6,12.3h-1.7V239h.6a2.28,2.28,0,0,0,1.2.6Zm6.3-1.7c0-.7-.6-1.2-1.7-1.7-1.7,0-2.6.4-2.6,1.2h-1.2v-.6a4.69,4.69,0,0,1,1.4-2.9l1.2.9q.6,0,.6-.9h.9a6.57,6.57,0,0,0,1.7,1.2l1.2-1.2h.3l.9.6h.3q.9-.45.9-.9v-.9l-.3-.6h.6a2.72,2.72,0,0,0,.6,1.7c-2.5,2.8-4,4.1-4.8,4.1Zm8.9-1.7c-.4,0-1.1.6-2,1.7h-.3a6.94,6.94,0,0,0,1.7-2.6.68.68,0,0,1,.6.4v.5Zm.3-27.6h.9v.6a1.61,1.61,0,0,0-.9-.3Zm1.4,29.3h-.6v-.6h.6Zm1.2-.9h-.3V237h.3Zm1.1-.5h-.3v-.6h.3Zm1.8-9.8h-.3v-.6h.3Zm-.9-12.1h-.3q.45-1.2.9-1.2h.3Zm.9-1.4V212q0-.45.6-.6h.3c-.2,1.5-.5,2.3-.9,2.3Zm2.8,16.1H615v-.6h.3Zm4.9-13.3q0-.45.6-.6v.9h-.6Zm1.5,18.2a1.61,1.61,0,0,0-.9.3v-1.4h.3a.68.68,0,0,1,.6.4v.7Zm.3-19.3h-1.2v-.6a3.38,3.38,0,0,0,1.2-.6Zm1.7,19v-.3a2.72,2.72,0,0,0,.6-1.7h1.4l.6.3c0,.5-.9,1.1-2.6,1.7Zm-.9-4.9h-.3v-.6q0-.6.9-.6a23.05,23.05,0,0,1,2.6-5.5h.6c0,1.7-1.3,3.9-3.8,6.7ZM646.1,203c.8-2.1,1.5-3.2,2-3.2l.3.6c-.6,0-1.3,1.2-2,3.7h-.3Zm-.8,2q0-.45.6-.6v.3a.68.68,0,0,1-.4.6h-.2V205Zm-3.2,11.2h.3v.6h-.3ZM639.5,188h.3v.6h-.3Zm-.3,1.5v.6q-.45,0-.6-.6Zm-1.7,3.5h.6v.3h-.6Zm-.3,32.8a29.39,29.39,0,0,1,4-8.6,15.4,15.4,0,0,1-1.4,5.5l-.6-.3-.6.3.3,1.4c-.8,1.5-1.4,2.3-1.7,2.3Zm-4.9,1.4.6.3q0,1.2-.6,1.2c0,1.8-1.3,3.2-4,4v-1.2h.3c2.1-2.4,3.2-3.8,3.2-4.3Z" transform="translate(30.2 -1.53)"/><path id="_Caminho_composto_13" data-name=" Caminho composto 13" class="cls-3" d="M685.3,209.1v32.5h23.4q27.6,0,50.7-17.8l-1.8-.6v.2H757v-.3h.3l-3.2-1c-1.4,1.2-3.1,2.5-5.2,4.2a3.51,3.51,0,0,0-.6-1.4v-.3l.6.3q.6,0,.6-1.2c1-.8,1.9-1.5,2.7-2.2l-5-1.6c-.4.3-.5.5-.5.6a1.61,1.61,0,0,0-.9-.3v-.7l-34.5-10.7c-1.5.1-3.1.2-4.7.2Zm6.4,20.7c-.9,1.3-1.5,2-1.7,2v-.9h.3c.7-1,1.2-1.4,1.4-1.4Zm-1.4-13.5a4.67,4.67,0,0,0-1.7-.3v-.3c1.9-.1,2.9-.7,2.9-1.7h.6Zm2.6-2.9h-.3v-.6h.3Zm.6,13.8v-.9h.3q.75-1.2,1.2-1.2c1.3-1.7,2.1-2.6,2.3-2.6v.9l-1.4,1.2c-1.3,1.7-2.1,2.6-2.4,2.6Zm8.9-.6h-.6a7.67,7.67,0,0,1-1.7,2.9c0,.2-.5.6-1.4,1.2a2.72,2.72,0,0,0,.6,1.7c-.2,0-.8.7-1.7,2-1,.2-1.4.6-1.4,1.2h-.3q-.9-.45-.9-.9c4.1-5.4,6.3-8.3,6.6-8.9h.3a.68.68,0,0,1,.6.4v.2Zm4.3,12.4h-.6v-.3h.6Zm19-8.6h.3v.6h-.3Zm-9,8.6q.9,0,.9-1.2h.6v.6q-.9.75-.9,1.2h-.6Zm-5.4-25.9h.6a.68.68,0,0,1-.4.6h-.2v-.6Zm-3.8,24.5h.6a.68.68,0,0,1-.4.6H707c0-.4.2-.6.5-.6Z" transform="translate(30.2 -1.53)"/></g><g id="_Grupo_3" data-name=" Grupo 3"><path id="_Caminho_composto_14" data-name=" Caminho composto 14" class="cls-1" d="M719.6,187.8h31.6c-.4,1-2.3,3.2-5.5,6.6a66.81,66.81,0,0,1-15.9,9.8L755,212c.4-.4,1-.9,1.6-1.5v-.3l-.3-.6,3.2-2.3a3.19,3.19,0,0,0,.3,1.4l1.7-.3a1.61,1.61,0,0,0,.9.3c-1.3,1.2-2,1.8-2,2q-.9-.45-.9-.9l-1.7,1.2a2.66,2.66,0,0,0,.3,1.2.68.68,0,0,1-.4.6h-.1l3.2,1a3,3,0,0,0,.5-1.3h.9v.9a1.91,1.91,0,0,0-1,.5l1.2.4,1-.6a5.3,5.3,0,0,1,2.9-2.6v1.2c-.8,0-1.8.7-3.3,2.2l3.3,1v-.1A2.91,2.91,0,0,1,768,214a10.71,10.71,0,0,1-1.4,1.6l1.8.6.8-.7q24.15-26.55,24.2-58.4v-1.7H718v-.9c0-14.7,4.4-26.8,13.2-36.5,12.2-10.9,25.8-16.4,40.8-16.4h21.3V69H770q-33.45,0-60.4,26.2-24.15,26.4-24.2,58.4v2a42.41,42.41,0,0,0,2.6,13.2C693,181.5,703.6,187.8,719.6,187.8ZM744.4,203h-.6a2.66,2.66,0,0,0-.3-1.2q-.45,0-.6.6l.3.6a1.61,1.61,0,0,0-.9-.3,2.22,2.22,0,0,1,1.7-1.4l.3,1.4Zm.8-1.2h-.3v-.6h.3Zm2.9-4V199a1.61,1.61,0,0,0-.9-.3,1.53,1.53,0,0,1,.9-.9Zm-1.4,2h-.3v-.6h.3Zm1.1,3.2-.6-.3v-.3c1-.5,1.4-1,1.4-1.4a1.72,1.72,0,0,0,1.2-1.4h.9c0,.9-1,2.1-2.9,3.4Zm15.8,8.6h-.3V211h.3Zm4.6-2,.3-.6a.68.68,0,0,1,.6.4v.2h-.9Zm3.8-47.1h-.6c0-1.3-.6-2-1.7-2v-.3a3.38,3.38,0,0,0,1.2-.6,2.2,2.2,0,0,0,1.2,2Zm.6,10h-1.4a1.61,1.61,0,0,0,.3-.9,2.75,2.75,0,0,1,1.1.9Zm-1.2,35.4h-.6v-.3h.6Zm4.9-3.4c-.4,0-1.5-.1-3.2-.3a3.47,3.47,0,0,1-2.3,1.2l-.3-.6a13,13,0,0,0,3.2-1.4,11,11,0,0,0,2.6.6Zm0-20.7h.3V185h-2v-.3a3.93,3.93,0,0,0,1.7-.9Zm-.8-3.8v-.6a2,2,0,0,0,1.4-.6h.3l.3,1.4v.9c-1.4-.3-2.1-.7-2-1.1Zm1.7,6.3v.6q-.45,0-.6-.6Zm0,6c.9,1,1.4,1.4,1.7,1.4q-.45,1.2-.9,1.2c0-.5-.6-1.3-1.7-2.3a.86.86,0,0,0,.9-.3Zm1.4-16.1h.6v.6q-.6.15-.6-.6Zm.9,23-1.7,2c-.2,0-.6-.5-1.2-1.4v-.3a11,11,0,0,1,2.6-.6h.3v.3Zm.3-14.1c0-1-.2-1.4-.6-1.4.4-1,1-1.4,1.7-1.4a2.49,2.49,0,0,0,.3,1.7Zm1.4-3.7h-.3v-1.2l.3-1.4h.3q1.2.75,1.2,1.2a1.39,1.39,0,0,0-1.5,1.4Zm2.3,4.9h-.9V186a1.61,1.61,0,0,0,.9-.3Zm-.6-10.9a2.28,2.28,0,0,0-1.2-.6v-.3l.6-.9q1.2.75,1.2,1.2c.1.3-.1.6-.3.6Zm-.8-2.6v-.6h.6c.1.3-.1.6-.3.6s-.3.1-.3,0Zm2.3,16.7v-.6h.6a.44.44,0,0,1-.4.6Zm1.7-6.9h-1.4q-.6,0-.6.9h-.3v-.3l1.4-1.7a1.61,1.61,0,0,0,.9.3Zm4.9-25.3h.9v.6a1.61,1.61,0,0,0-.9-.3Zm-.9,3.2a.78.78,0,0,0,.9-.6v-.2h.9a12.21,12.21,0,0,1-.6,2.6h-1.4l.6-.9V161Zm-.2,8.6h.3v1.2h-.3Zm-1.2-3.2h.3a.68.68,0,0,1-.4.6h-.5q0-.45.6-.6Zm-.6,13.2c0-.1.1-.7.3-1.7h.6a8.65,8.65,0,0,0-.6,2.3h-.3Zm-1.7-14.6h.3v.9a2.66,2.66,0,0,0-1.2.3l-.6-.9Zm-1.7,3.7.6,2a.68.68,0,0,1-.4.6h-1.4v-.6c.5-1.3.9-2,1.2-2Zm-.6-4c-.1,0-.3-.1-.3-.2v-.1a2.66,2.66,0,0,0-1.2.3h-.3a3.51,3.51,0,0,1,.6-1.4,2.38,2.38,0,0,0,1.2.3Zm-3.2-1.7h-.3v-.3q1.2,0,1.2-.9H783q-.15.9-2.1,1.2Zm-1.1-5.8h.6l.9.6a.68.68,0,0,0,.6-.4v-.2c.3,0,.6.4.9,1.1q-.9.45-.9.9a1.61,1.61,0,0,1-.9-.3l-1.2.3a7.08,7.08,0,0,1-1.2-1.4,3.38,3.38,0,0,0,1.2-.6Zm-4.9,13.5c0-.3.5-.6,1.4-.9v1.4l-1.4-.3Zm-1.2,4h.6l.9.6h.6a11.08,11.08,0,0,1,2.9-1.4,3.19,3.19,0,0,0,.3,1.4v.3l-2.6-.3q-.6,0-.6.9h-1.4q0-.9-1.2-.9c-.1-.3.1-.5.5-.6Zm-.8-4.5h-.6v-.3h.6Zm-3.8-13a16.32,16.32,0,0,1,2,1.7h.6l.6-.3v.3c0,.3-.5.6-1.4.9-.1-.6-.8-.9-2-.9ZM766,174.8h.6v.3H766Zm-1.2,35.1c.5,0,1.8-1.2,4-3.5h.6v.9q-1.2,0-1.2.9c-.8.1-1.1.4-1.2.9q-1.2.15-1.2,1.2h-1.2Zm-.6-2.9h-.3c-1.3-.8-2-1.4-2-1.7V205a3.19,3.19,0,0,0,1.4-.3c0,.6.4,1.1,1.2,1.4a3.18,3.18,0,0,0-.3.9Zm-.6-40.8-.3-1.4h.6a2.49,2.49,0,0,0,.3,1.7,1.61,1.61,0,0,0-.9.3H763a.74.74,0,0,1,.6-.6Zm-2.3-2.9h.6a1.61,1.61,0,0,0,.3.9H761a1.61,1.61,0,0,0,.3-.9Zm-1.1,4a.68.68,0,0,1,.6.4v.5h-.6Zm-2-9.2h.6v.9q-.45,0-.6-.6Zm-.9,12.4q0-.45.6-.6l.3,1.7a1.61,1.61,0,0,0-.9.3Zm1.5,28.2.6.3c-1,.6-1.4,1.1-1.4,1.7h-.3l-.6-.3c-.1-.2.5-.7,1.7-1.7Zm-6-.9a3.19,3.19,0,0,0,.3,1.4h-.9v-1.4Zm-.6-32.5c.5-.8.9-1.1,1.2-1.1h.3c-.6.5-.9.9-.9,1.1Zm1.1,39.1H753v-.6h.3Zm.6-43.1h.6v.3h-.6Zm.9,1.7a.68.68,0,0,1-.4.6h-.2V163Zm-.9,25a.68.68,0,0,1,.6.4v.5q-.45,0-.6-.6Zm.3,20.1a.68.68,0,0,1,.6.4v.5a2.66,2.66,0,0,0-1.2.3v-.6q0-.3.6-.6Zm-1.4-46a1.61,1.61,0,0,0,.9-.3v.6h-.9Zm-.9.9h.6v.3h-.6Zm-1.2,11a2.65,2.65,0,0,1,1.4,1.7q-.3,0-.3.6c-.5,0-1-.7-1.4-2,.1,0,.3-.1.3-.2Zm-.9,3.2h.3v1.2h-.3Zm-7.4,5.1a2.66,2.66,0,0,1,1.2.3.68.68,0,0,0,.6-.4v-.5h-.6v-.6l1.4.9c0,.2-.7.8-2,1.7a3.38,3.38,0,0,0-.6-1.2Zm-1.2,1.2a2.38,2.38,0,0,0,1.2.3v.2c0,.2-.5.6-1.4,1.2a1.61,1.61,0,0,0-.3-.9ZM761.6,90h-.3v-.6h.3Zm4.3,9.2a3.74,3.74,0,0,1,1.2-2c1,.1,1.4.4,1.4.9-.4,0-1.1.5-2,1.4Zm1.5.9c.1-.5.6-.9,1.4-1.1a2.38,2.38,0,0,0,.6,1.1Zm2-6.9v.6q-.9,0-.9.6c-1.9.3-2.9.8-2.9,1.4l-.6-.3h-.6l-.6.3v-.3l1.4-1.7-.3-1.4.6.3h.6a10.7,10.7,0,0,1,2.6-2.6,1.72,1.72,0,0,0,1.2-1.4h.3l.3,2h-1.7q-.45,0-.6.6v1.4c0,.3.4.4,1.2.5Zm-6-5.8v-.6a2.66,2.66,0,0,0,1.2-.3v.6a2.13,2.13,0,0,0-1.2.3Zm9.5.9a3.61,3.61,0,0,0-2-.6v-.3h.3c1.1-1.9,1.7-2.9,2-2.9a2,2,0,0,0,.3,1.1.68.68,0,0,0,.6-.4v-.8h-.6v-.3h.3l.9.6h.3c1.1-1.3,1.8-2,2-2h.3a1.61,1.61,0,0,0-.3.9c-2.8,2.1-4.2,3.6-4.1,4.7Zm1.1-11V77q1.2,0,1.2-.9h.3v.3a1.61,1.61,0,0,0-.3.9Zm.9,5.8v.3h-.6v-.3ZM776,100h-.9v-.3h.9Zm-.6-2.6v-.6h.3a.68.68,0,0,1,.6.4v.2Zm2-2.6a1.61,1.61,0,0,0-.9-.3,3.19,3.19,0,0,0,.3-1.4h.6Zm4.6-2c0,.9-.7,2.2-2,4h-.6a19,19,0,0,0,2-3.7v-.6a1.61,1.61,0,0,0-.9.3,3.15,3.15,0,0,1-1.7-.9c1-1.9,2-2.9,3.2-2.9l.3.6a1.66,1.66,0,0,0-1.7,1.1v.6c.7,1.1,1.2,1.6,1.4,1.5Zm2.6,5.5q0,.45-1.2.9v-.3q0-.45,1.2-.9Zm.3-3.5V93.1a13.65,13.65,0,0,0,1.7-1.7,1.61,1.61,0,0,0,.9.3,9.79,9.79,0,0,1-2.6,3.1Zm1.4-4.6c-1,.5-1.4,1-1.4,1.4h-.6c0-1.2,1.2-2.5,3.7-4a5.63,5.63,0,0,1-1.7,2.6Zm3.2.3h-.3v-.9h.6a3.18,3.18,0,0,0-.3.9Zm2,8.1H791q0-.45.6-.6ZM789.8,79c0,.8.7,1.1,2,1.1v2.3c-.7,1.2-1.1,1.7-1.4,1.7h-.3l.6-.9v-.6l-.3-.6a.68.68,0,0,0,.6-.4V81c0-.6-.8-.9-2.3-.9A1.39,1.39,0,0,1,789.8,79Zm-2.9.6c0,.4.5.6,1.4.6v.6c-1.5,0-2.3.6-2.3,1.7h-.3a2.38,2.38,0,0,0-.6-1.1c.8-1.2,1.4-1.7,1.8-1.8Zm-1.4,2.9v1.1c-1.9,1.6-2.9,2.5-2.9,2.9h-.3l-.6-.3a23,23,0,0,1,2.3-4Zm-2.6-11.3h.6v.3a4.64,4.64,0,0,0-1.2,2.3h-.6a6.82,6.82,0,0,1,1.2-2.6Zm-.6,7.5v.9c-.4,0-1.1.6-2,1.7H780V81a8.66,8.66,0,0,1,2.3-2.3Zm-2.6-4.9c.1.8.4,1.1.9,1.1l-2.3,2.3.6.9v1.1c-1.9,1.6-2.9,2.5-2.9,2.9h-.9c0-.1.1-.3.2-.3h.1c2-5,3.2-7.7,3.7-8Zm-4.9-3.4H776q-.45.9-.9.9h-.3Zm0,4.3a18,18,0,0,0-2.6,2.9c0,.4.5.6,1.4.6v.6c0,.2-.9.9-2.6,2a1.61,1.61,0,0,0-.3-.9,6.45,6.45,0,0,0-3.5,3.2v-.6c.6-2.1,2.2-4.5,4.9-7.2l.6.3h.3l1.7-1.7Zm-4-3.2c.6,0,.9-.4.9-1.1h2l-.3.6c-1.2,0-2.1,1-2.6,2.9-1.3,0-2,.5-2,1.4q-.9-.45-.9-.9l-1.4.3a7.53,7.53,0,0,1-2.6,3.5,1.94,1.94,0,0,0-.9-1.4v-.3l.3-.6,1.4.3,4.6-4.9Zm-10.6,2.6c1.1-1.9,2.1-3.1,2.9-3.5h2.3c-.7,1.5-1.5,2.3-2.3,2.3l-.6-.3q-.9,0-.9.6l.3,1.4c-.6,0-.9.8-.9,2.3h-.3a2.38,2.38,0,0,0-.6-1.1V74.1Zm-11.8-.6h.3v.6h-.3Zm-8.6,9v.9l-.6-.3a.53.53,0,0,1,.6-.6Zm-15.6,4.6h.6a.68.68,0,0,1-.4.6h-.2v-.6Zm.3,11.2c1.5-1.9,2.3-3.1,2.3-3.5h.6v.6c-2.1,4.6-3.9,6.9-5.5,6.9V102l1.2-2c.9,0,1.4-.6,1.4-1.7Zm-2-9.5h1.2v.6c-1.5,2.7-2.3,4.2-2.3,4.6h-1.2a14.29,14.29,0,0,0,2.3-5.2Zm-4,7.8h.3v.6h-.3Z" transform="translate(30.2 -1.53)"/><path id="_Caminho_260" data-name=" Caminho 260" class="cls-1" d="M756.7,212.5l.8.3a1.14,1.14,0,0,0-.3-.8C757,212,756.8,212.1,756.7,212.5Z" transform="translate(30.2 -1.53)"/></g><path id="_Caminho_composto_15" data-name=" Caminho composto 15" class="cls-1" d="M571.3,154.9V101.5h21.6a63.41,63.41,0,0,1,11.5,1.4c28.2,6.9,42.3,24.3,42.3,52.4a60.49,60.49,0,0,1-3.8,21.9l31.6,9.8a103.64,103.64,0,0,0,4.7-31.7c0-32.7-12.7-56.7-38-72.2Q615,69,591.5,69H538.9v75.9Zm88.6-49.4h-.3q-.45,0-.6-.6h.9Zm-1.7-5.5a1.61,1.61,0,0,0,.9-.3v1.1l-.3.6q-.45,0-.6-.6Zm-1.2,3.7a2.72,2.72,0,0,0,.6-1.7h.9v.6a2,2,0,0,0-.6,1.4H657Zm-.5,1.8h.3v1.1h-.3ZM626.3,94.8H626v-.6h.3Zm4.3-1.7h-.3V92h.6Zm1.4,7.8h-.3c0-.2.8-.8,2.3-1.7h.6c0,.4-.9,1-2.6,1.7Zm6.3,3.4H638v-.9h.6l-.3.9Zm12.4-12.1h.9a4.67,4.67,0,0,0-.3,1.7H651l-.3-1.4Zm-4.6-.3a.78.78,0,0,0,.9-.6v-.2h.9l1.1.9a2.38,2.38,0,0,0-.6,1.1c-1.3,1.4-2.6,4.9-4,10.4q-.45,0-.6-.6v-1.1l2.9-7.8v-.9l-.6-.9v-.3ZM645,94.6l-.6.9v.3l.3.6-.6.3h-.3c0-.6-.6-1.1-1.7-1.7h-.3q-.45,0-.6.6l.3.6a9.91,9.91,0,0,0-1.7,1.1,4.65,4.65,0,0,0,.6,2.3h-.9c-.7-1.2-1.2-1.7-1.7-1.7V96.8l1.4.3q.9-.45.9-.9v-.6q0-.75-1.2-.9v-.3h.3l1.4.6q.9-.45.9-.9v-.6c-.1-.6-.9-.9-2.3-.9h-.3l-.6.3v-.3q0-.45.6-.6c0-1.2-.4-1.7-1.2-1.7V90h3.2q0,.9.6.9h.3a.68.68,0,0,0,.6-.4v-.2l1.7.3-.3,1.4v2Q643.8,94.6,645,94.6Zm-8.6-8.1a2,2,0,0,1,1.7-2l.9.6h.6a.68.68,0,0,0,.6-.4v-.2a16.49,16.49,0,0,1,3.7,2v.3c-1.7.3-2.6,1-2.6,2H641l-2.3-1.4h-.6l-1.7,1.7q.45.9.9.9l-.3.6a1.84,1.84,0,0,1-1.2,1.7v.6l.6.9v.6l-.6-.3q-.6,0-.6.9h-.9l-.6-.3.6-1.1q0-.45-.6-.6h-.6l-.6.3c-.4-1-.8-2.1-1.2-3.2,1.2-.4,1.7-.8,1.7-1.1l-.3-.6q-.6,0-.6.9l-.6-.3.3-1.1h1.4q0,.9.6.9c.1,0,.3-.1.3-.2v-.1c1.6-.6,2.2-1.2,2.3-2Zm-8.9-3.7a2.72,2.72,0,0,0,1.7.6c.4-.1.8-.6,1.2-1.4a2.38,2.38,0,0,0-.6-1.1v-.3l1.4-.3c0,1.2.2,1.7.6,1.7s.8-.5,1.2-1.4l1.7.9c0,.5-.6,1-1.7,1.4a38.09,38.09,0,0,0-5.2,2.9h-1.2c-.8-.5-1.2-.9-1.2-1.1,1.4-.9,2-1.5,2.1-1.9Zm-2.3-5.5,1.2.3c0,.4-.6.8-1.7,1.1a1.61,1.61,0,0,0-.3-.9.62.62,0,0,0,.8-.5Zm-4.6,3.8h.9v.3a1.61,1.61,0,0,0-.9.3Zm-5.8-7.2a2.38,2.38,0,0,0,1.2.3l-.6.9q-.45,0-.6-.6ZM613,82.8q0-.45.6-.6v.3a.68.68,0,0,1-.4.6H613v-.3Zm-.9-8.1q.3,0,.6.9a2.66,2.66,0,0,0-1.2.3q-.9-.45-.9-.9Zm-4.9,4.6a3.51,3.51,0,0,0,1.4-.6,1.4,1.4,0,0,1-1.2,1.4l-.3-.6v-.2Zm-2,2.9h.6a.68.68,0,0,1-.4.6h-.2v-.6ZM596.1,75a1.61,1.61,0,0,0,.9-.3q-.45.9-.9.9Zm-2.3-4.6h.6a8.06,8.06,0,0,1-2.9,2.9h-.6a1.61,1.61,0,0,0-.3-.9c1.3-1.3,2.4-2,3.2-2Zm-49.2,66.2h-.3v-.3l.3-.6-.3-1.4c.7-1,1.2-1.4,1.4-1.4,0,.1-.4,1.3-1.1,3.7ZM557.2,71h.6v.3h-.6Zm-1.4,1.4a1.61,1.61,0,0,0,.9-.3v.3a2.38,2.38,0,0,0-.6,1.1h-.3Zm-1.2,1.5h.3v.6h-.3Zm-14.3.8,1.7,1.4h.6a.68.68,0,0,0,.6-.4V75l-2.9-2.6.3-2h6.6c-3.1,4.2-4.6,6.5-4.6,6.9h-2.3Zm0,65.3h.3a3.19,3.19,0,0,0,.3,1.4l-.6.3Zm0,4.3.6.3a.68.68,0,0,1-.4.6h-.2v-.9Z" transform="translate(30.2 -1.53)"/><g id="_Grupo_4" data-name=" Grupo 4"><path id="_Caminho_composto_16" data-name=" Caminho composto 16" class="cls-1" d="M430.1,111.1v-.5a.78.78,0,0,0,.9-.6v-.2h.6c0,.8.2,1.1.6,1.1h.3q.6,0,.6-.9h1.2a2,2,0,0,1-.3,1.1,1.59,1.59,0,0,0-1,.8l19.4,6c.6-1.3,1.3-2.1,2-2.2a.68.68,0,0,1,.6.4v.2c-.1.5-.8,1.1-2,1.7h-.3l3.8,1.2V102q0-.45.6-.6h17.8a32.77,32.77,0,0,1,11.2,1.7c8.8,3.3,13.2,9.6,13.2,18.7v2a21.76,21.76,0,0,1-1.2,7.2,9.29,9.29,0,0,1-.5,1l32.1,10a76.85,76.85,0,0,0,2.1-17.9v-2.6c0-14.7-4.3-27.1-12.9-37.3s-18.6-15.3-30-15.3H424.5q-.45,0-.6.6v39.7Zm98.7,15.8a2,2,0,0,0,1.2-1.7h.3v.3l-.3,1.4.3.6c-.6,0-.9.4-.9,1.1l-.6-.3a1.61,1.61,0,0,1,.3-.9Zm-6-7.4h.2v.9h-.3Zm-6-22.5h.6v.3h-.6Zm-11.6,23H505v-.6h.3v.6Zm6.4-6.6h.6v.3h-.6Zm-5.8,2.3h.2v.6h-.3Zm0,2.6h.2v.6h-.3Zm-.6-1.5v.6h-.6q0-.45.6-.6Zm-4.3,6h1.4a3.34,3.34,0,0,0,1.4-2.3h.2l.6.3c-1.5,1.6-2.3,2.6-2.3,3.2l-1.4-.3ZM476.8,84c.4,0,.9-.4,1.4-1.1v.3a4.19,4.19,0,0,0-.9,1.4h-.6V84Zm-48,1.4h-.3v-.9h.3Zm1.4,9.5v-.3q0-.45.6-.6v.3a.52.52,0,0,1-.3.7c-.1.1-.3,0-.4,0Zm2.6,14.4h-.6v-.9h-.9l-.6.3v-.6c.4,0,.9-.4,1.4-1.1v.3c0,.8.3,1.2.9,1.1a3.55,3.55,0,0,0-.4.9Zm-1.4-15.8v-.3h.6v.3Zm3.1,7.5a5,5,0,0,0-1.2,2.9h-.6V103l.6-.9V101q0-.6-.9-.6v-.3q.9,0,.9-.6c.8.5,1.2.9,1.2,1.1Zm-2-8.4V92h.5v.6Zm1.2-1.1v-.3h.6v.3Zm6.6,20.7H440v-.6h.9a.52.52,0,0,1-.3.7.3.3,0,0,1-.4,0Zm2.9,1.4h-.6v-.3h.4Zm0-23.3.6-.3a1.61,1.61,0,0,0,.3.9v.3h-.6a1.37,1.37,0,0,0-.5-.8Zm2,9a3.19,3.19,0,0,0,1.4-.3l1.4,1.7v.3a2.72,2.72,0,0,0-1.7.6c-1,1-1.7,1.4-2,1.4H444v-.3c.5,0,1-.8,1.4-2.3v-.6Zm-.9-12.7h-.9v-.3h.9Zm0,26.5h-.6v-.9h.6Zm.3-6.6h-.3v-.6q0-.9.6-.9Zm1.7,9.2h-.6q0-.45.6-.6Zm.3-4.9H446v-.6h.6Zm6-2.3q-.45.9-.9.9l.3,1.4a3.09,3.09,0,0,1-2,1.1c-.1,1.2-.7,1.7-1.7,1.7q-.45-.9-.9-.9a32,32,0,0,1,5.2-5.2Zm.3-12.4h.3a2,2,0,0,0,.3,1.1l-1.2.9c-.7,1-1.3,1.4-1.7,1.4q0-.3-.6-.3c1.9-1.6,2.8-2.6,2.9-3.1ZM450,91.2V91a7,7,0,0,0,2.3-1.1.68.68,0,0,1,.6.4V91h-1.7q-.6,0-.6.9c-.4,0-.6-.2-.6-.7Zm3.2-1.1a1.61,1.61,0,0,0,.3-.9h.5v.3a.68.68,0,0,1-.4.6h-.4Zm0,17.2V107h.6v.3Zm1.1,3.5h-.6v-.3h.6Zm-1.1-9.5h-.3v-1.1a.78.78,0,0,0,.9-.6v-.2h.9c-1.1,1-1.6,1.7-1.5,1.9Zm2.3-13.2h-.9v-.3h.9Zm1.1,9.4H456V97h.6Zm11.2-27.3h.6v.3h-.6Zm-3.4,25.9h.3a.68.68,0,0,1,.6.4V97a5.93,5.93,0,0,0-2.3,1.4h-.6v-.3a.78.78,0,0,0,.9-.6v-.2a1.62,1.62,0,0,0,1.1-1.2Zm-.6-21.6v.3c-.5.8-1,1.2-1.2,1.2h-.3v-.6a1.76,1.76,0,0,0,1.5-.9Zm-17.2,7.2a2.72,2.72,0,0,0,1.7-.6c.5-1,.9-1.4,1.2-1.4,0-.4.5-1,1.4-1.7.8-.3,1.2-.7,1.2-1.1a6.45,6.45,0,0,1,2,.3l.9-.6a3.51,3.51,0,0,0-.6-1.4q0-.3.9-.3c.3-1.9.7-2.9,1.2-2.9h.3c0,.8.2,1.1.6,1.1h.8c1.6-1.9,2.5-2.9,2.9-2.9h1.7v.3c-2,1.3-3.1,2-3.5,2-1.4,2.4-2.5,3.5-3.2,3.5a4.94,4.94,0,0,1-2.3,2.3h-.9c-.3,0-2.2,1.3-5.5,4a1.61,1.61,0,0,0-.9-.3Zm.5,6.3h.3v.3q-1.2,0-1.2.9h-.6c0-.3.5-.7,1.3-1.1Zm-4.6-10.9c1.9-1.6,2.9-2.5,2.9-2.9h.3v.3c0,.5-1.1,1.5-3.2,3.2ZM442,91.8l.3-.6a.68.68,0,0,1,.6.4v.5H442Zm-4.6,20.7v-.9a3.19,3.19,0,0,0,1.4-.3,6,6,0,0,1,2.9-3.2h.3a10.79,10.79,0,0,1-4.6,4.4Zm4.3-36.8v1.1a1.61,1.61,0,0,0-.9.3l-.6-.3c.1-.5.5-.8,1.5-1.1Zm-.3,16.7h.3v.9a1.1,1.1,0,0,0-1.2.8v.3h-.6a2.39,2.39,0,0,1,1.5-2Zm-2.3,2.3h.3v.6H439Zm-.9-9.8h.6v.3h-.6Zm.6,1.7v.6q-.45,0-.6-.6Zm-.6,9.8a2.84,2.84,0,0,0-.9,1.7H437l-.3-2c0-.4.5-.6,1.4-.6ZM437.6,86v.3q0,.6-.9.6v.6l1.2,1.4h-.3q-.45,0-.6-.6-.45,0-.6.6v.3l.3.6h-.3q-.45,0-.6-.6V89a3.87,3.87,0,0,1,1.8-3Zm-2.3-12.9h.6v.3h-.6Zm-.8.8h.3v.6h-.3Zm-.3,7.2h.3c.8.5,1.2.9,1.2,1.1-2.7,1.7-4,2.7-4,3.2a2,2,0,0,0-1.4-.6c0-.3.7-1.1,2-2.3h.8c.7.1,1.1-.4,1.1-1.4Zm-2.6-4.6q0-.45.6-.6h.3v.9h-.9Zm-6.3,6.4a12.81,12.81,0,0,0,2-1.1c.2-1.1.6-1.8,1.1-2,1-.5,1.4-1,1.4-1.4l1.4.3.6-.3v.9h-.6c-1,1.3-1.8,2-2.3,2,0,.4-.5,1-1.4,1.7a1.24,1.24,0,0,0-1.1,1.4h-1.1Zm0,17.8h.6v.3h-.6Z" transform="translate(30.2 -1.53)"/><path id="_Caminho_261" data-name=" Caminho 261" class="cls-1" d="M430.9,110.5c-.3,0-.5.2-.5.6l1.4.5a5.42,5.42,0,0,1-.6-1.1Z" transform="translate(30.2 -1.53)"/></g><path id="_Caminho_composto_17" data-name=" Caminho composto 17" class="cls-1" d="M410.5,110.1V69.5q0-.45-.6-.6H367.3c-.5,1-8.6,22.6-24.3,64.5Zm-12.1-3.4a2,2,0,0,1,1.1.3,1.61,1.61,0,0,0,.9-.3l1.1.3a.68.68,0,0,0,.6-.4v-.2a2,2,0,0,0,1.4.6l-.6.9-.6-.3H402q-.45,0-.6.6a1.61,1.61,0,0,1-.9-.3q-.9,0-.9.6l-.9-.6h-.3q-.45,0-.6.6l-.6-.3Zm-6.6,5.7a36.21,36.21,0,0,0,4.6-.6l.6.3a1.61,1.61,0,0,0,.9-.3,1.61,1.61,0,0,1,.9.3c.4-.1.8-.2,1.1-.3h.3V113l-.6-.3h-.9l-.6.3c0-.1-.1-.3-.2-.3H397l-.6.3c0-.1-.1-.3-.2-.3h-2.7l-.5.3c0-.2-.4-.3-1.1-.3Zm-5.7-3.2c.1,0,.3.1.3.2v.1l1.4-.3h.3l-.6.9c-.1,0-.3-.1-.3-.2v-.1l-1.4.3h-.3Zm-6.7,7.2a10.73,10.73,0,0,0,3.5-.6c0,.1.1.3.2.3h.9l.6-.3v.6a8.66,8.66,0,0,0-3.2.6,6.93,6.93,0,0,0-2-.3Zm-12.9-1.1h.3v.6h-.3Zm-2.6.6v.3a.68.68,0,0,1-.4.6h-.2v-.3a.53.53,0,0,1,.6-.6Z" transform="translate(30.2 -1.53)"/><g id="_Grupo_5" data-name=" Grupo 5"><path id="_Caminho_composto_18" data-name=" Caminho composto 18" class="cls-1" d="M308.8,145.4c0-.1,0-.1-.1-.2,1-1.3,1.6-2,2-2h.3v.9c-.5,0-.8.3-1.1.9l8-2.8L345.1,69H313.9l-31.4,85.5Zm2.2-20.3h-.6v-.3h.6Zm8.1,6-.6-.3h-.9c-.4,0-.6.7-.6,2q-.9-.45-.9-.9l.9-1.1q0-.45-.6-.6l.6-.9a3.61,3.61,0,0,0,2,.6Zm.8-11.5-.3.6c-1.2,1.6-2.4,3.2-3.5,4.9h-.6a2.38,2.38,0,0,0,.6-1.1c.7-.3,1.8-1.8,3.5-4.6h.3Zm-4-6a1.61,1.61,0,0,0,.3-.9,2,2,0,0,0,1.4.6v.6a2.49,2.49,0,0,0-1.7-.3Zm6,15H321q-.45,0-.6-.6a2.17,2.17,0,0,0,1.1-1.7h.3l.6.3a4.23,4.23,0,0,0-.5,2Zm-1.1-16.7q.45-.9.9-.9l.6.3a2.38,2.38,0,0,0-.6,1.1Zm8.3-8.1a1.61,1.61,0,0,0-.9-.3v-.3a1.61,1.61,0,0,0,.9-.3Zm0-6.3h-.3l-.9-.6H327v.6h-.3q-.45,0-.6-.6.9,0,.9-.6a6.93,6.93,0,0,0,2,.3Zm-2-5.8v.6a.68.68,0,0,1-.4.6h-.5q.45-1.2.9-1.2Zm-.3-3.1v-.3a2.38,2.38,0,0,0,1.1-.6V88l-.3.6Zm2.3-1.7a1.61,1.61,0,0,0-.9.3H328q.45-.9.9-.9h.3v.6Zm.3-11.8v-.3l.3-.6a.68.68,0,0,1,.6.4v.2a1.61,1.61,0,0,0-.9.3ZM340,79q0-.9.6-.9l-.3,1.1H340Zm-6.3,6h.6v.3h-.6Zm-2.3-15a.68.68,0,0,1,.6.4v.1h-.9Zm0,3.7h.3v.6h-.9c0-.2.2-.4.6-.4ZM329.6,70l.6.3-.2.7.6.9a1.61,1.61,0,0,0-.9.3l-1.1-.3c-.8,0-1.4.6-1.7,1.7h-.6c0-1.2,1.1-2.4,3.4-3.5Zm-3.7,19.3h.3v.9a2,2,0,0,0-1.1.3h-.3c.5-.7.9-1,1.2-1Zm0,23.6V114c-.8.1-1.1.4-1.1.9v.9a.68.68,0,0,0,.4.6h.2a1.39,1.39,0,0,1-1.1,1.1l-1.1-1.1c-.4,0-.6.4-.6,1.1l-1.1-.6c-.1,0-.3-.1-.3-.2v-.1a21,21,0,0,0,3.2-4.6,2.53,2.53,0,0,0,1.8,1Zm-4.3-4.9c1.3.7,2,1.2,2,1.4h-.3l-.9-.6-1.1.9h-.9c.5-1.1.9-1.6,1.2-1.6Zm-1.5-4.9h.6v.3h-.6Zm-.8,7.5h.3a2.38,2.38,0,0,0,.6,1.1h-.9Zm-1.2-3.5a2.38,2.38,0,0,0-1.1.6h-.6a2,2,0,0,0-.6-1.4V106h.3a2.88,2.88,0,0,0,2,.9Zm-3.7-33.7a1.61,1.61,0,0,0,.9-.3c1.2.5,1.7.9,1.7,1.1v.3a4.92,4.92,0,0,0-1.7-.6H315l-.6.3Zm.3,65.9c1.5-1.2,2.3-2.2,2.3-2.9h.6a2,2,0,0,0,.3,1.1c-1.2,1.7-2.1,2.6-2.9,2.9l.3,1.4h-.6c0-.8-.3-1.2-.9-1.1h-.3q-.45,0-.6.6a1.24,1.24,0,0,0-1.1,1.4h-.6v-.6a4.19,4.19,0,0,0,.9-1.4c1.8-.1,2.6-.5,2.6-1.3Zm-2.9-23.6q0-.45.6-.6v.6Zm-1.4-33.9q.9.45.9.9V83a2,2,0,0,0-1.1.3Zm-.3,31.2h.9l2.6,1.1v.6a2,2,0,0,0-1.1.3c0-1.2-.8-1.7-2.3-1.7Zm-3.4-8.6a2,2,0,0,0,1.1-.3,1.61,1.61,0,0,0-.3-.9v-.3a1.61,1.61,0,0,0,.9.3,3.51,3.51,0,0,0-.6,1.4h-1.1Zm-1.5,3.4h.3v.6h-.9c0-.4.2-.5.6-.6Zm-.6,19.9q0-.45.6-.6v.3a.68.68,0,0,1-.4.6h-.2ZM303.5,111l.3.6v.3c-1.2.7-1.7,1.2-1.7,1.7h-.3v-.3A2.1,2.1,0,0,1,303.5,111Zm-2.6-1.4a2,2,0,0,0,1.1-.3v.6a.68.68,0,0,1-.4.6h-.8Zm-.6,14.6h.3v1.1l-.6-.3a1.14,1.14,0,0,0,.3-.8Zm-.8,13.3h.9a1.61,1.61,0,0,1-.3.9,2.28,2.28,0,0,1,.3,1.1h-.9l.3-.6V138Zm-.6,2.5c.3,0,.5.3.5.7a.47.47,0,0,1-.5.5h-1.1a2.38,2.38,0,0,0,.6-1.1h.5Z" transform="translate(30.2 -1.53)"/><path id="_Caminho_composto_19" data-name=" Caminho composto 19" class="cls-1" d="M166.5,194.7l39.8-13.8,26-70.1,20.2,54.1,27.4-9.5L247.9,69H216.6l-32.4,89.5L151,69H119.2q38.55,103.35,39.3,104.7ZM256,134.9a4.19,4.19,0,0,0-.9,1.4h-.3a3.19,3.19,0,0,0-.3-1.4c.1,0,.3-.1.3-.2V134l-.3-.6c.1,0,.3-.1.3-.2v-.7l-.3-.6c.2,0,.3-.4.3-1.1.8.3,1.1.6,1.1.9v3.2Zm13-2.3.3-.6a1.61,1.61,0,0,0-.3-.9v-.3h.3a4.92,4.92,0,0,0,.6,1.7l-.3,1.7H269a1.61,1.61,0,0,1,.3-.9,1.08,1.08,0,0,0-.3-.7Zm-3.2,3.4q-.9-.45-.9-.9v-3.5h.9Zm-2-9.5.3-.6a1.61,1.61,0,0,0-.3-.9q0-.45.6-.6h.6v5.8h-.3l-.9-2.3.3-.6a1.6,1.6,0,0,0-.3-.8Zm-2-2v4a7.53,7.53,0,0,1-2.6,3.5,20.29,20.29,0,0,1-1.1-2.6c.1,0,.3-.1.3-.2v-.7l-.4-.5c.1,0,.3-.1.3-.2v-.7l-.3-.6c.1,0,.3-.1.3-.2v-.7l-.3-.6c.1,0,.3-.1.3-.2v-.7l-.3-.6c.1,0,.3-.1.3-.2v-.7l-1.7-1.8h.9a8.17,8.17,0,0,0,4.3,3.7Zm-4.9-27.9a2,2,0,0,0,.3,1.1.68.68,0,0,1-.4.6h-.2q0,.6.9.6c.5,1.9.9,2.9,1.1,2.9l-.6.9.6.9a1.61,1.61,0,0,0-.9.3c-.2,0-.8-.6-1.7-1.7l-.6.3q0-.45-.6-.6l-.6.3v-.9c1.5-2.2,2.3-3.7,2.3-4.6Zm-5.5,0a41.51,41.51,0,0,0,2.9-6h.3l1.1,3.7c-.4,0-.6.5-.6,1.4l-1.4-.3q-.45,0-.6.6v.3l.3.6q-.45,0-.6.6v.3l.3.6h-.3c-.8-1-1.3-1.4-1.4-1.4Zm-3.1,44.6h.6v-.6q0-.45-.6-.6a2.38,2.38,0,0,0,.6-1.1l1.1.9a4.52,4.52,0,0,0-1.1,1.7h-.6Zm-3.2-2h-.3a3.19,3.19,0,0,0-.3-1.4h1.1a2,2,0,0,0-.5,1.4Zm.3-2.3v-.3h.6v.3Zm1.7-4.9.6.3a2.28,2.28,0,0,0-.3,1.1h-.3Zm-.8,12.1H246l.6-2h.3a1.61,1.61,0,0,0,.3.9c-.4.7-.7,1.1-.9,1.1Zm-.3-8.3v-.6h.3v.6Zm.9-1.5h-.3v-.6h.3Zm-1.5-63.8a2.38,2.38,0,0,0,1.1-.6v.6a1.61,1.61,0,0,0-.9.3h-.3v-.3Zm-2,6q0-.45.6-.6v.3a.68.68,0,0,1-.4.6h-.2v-.3Zm1.2,53.7q.6.9.9.9c-.7,1.9-1.2,2.9-1.4,2.9,0-1.2-.2-1.7-.6-1.7.2-1.4.5-2.1,1.1-2.1Zm-3.2-52.9c.8.5,1.1.9,1.1,1.1V79c-.8-.5-1.1-.9-1.1-1.1ZM238,71.9h.6a1.61,1.61,0,0,1-.3.9l.3.6H238Zm-3.5-.9h.5v.3h-.6Zm-6,2.3h.5v.3h-.6Zm-.6,42.6h.6v.6h-.6Zm0,1.4v.6q-.45,0-.6-.6Zm-1.7,1.5a1.61,1.61,0,0,0,.9-.3l.3.6a2,2,0,0,0-1.1.3v-.6Zm-.3,1.1h.6v.3h-.6Zm-.6.9a.68.68,0,0,1,.6.4v.2h-.6Zm-3.1,7.7a16.65,16.65,0,0,0,1.4-4.3l.6.3-1.1,2.6a.68.68,0,0,0,.4.6h.5v-1.1h.6a7.22,7.22,0,0,0-.9,2q-.45,0-.6-.6-.45,0-.6.6l.3.6h-.6Zm-.6,1.2a.68.68,0,0,1,.6.4v.2h-.6Zm-1-35.7h.6v.3h-.6Zm-3.4,11.5-.6-.9a1.61,1.61,0,0,0,.9-.3l-.3-1.4h1.7l.6-.3c-1.2,3.1-2,4.8-2.6,4.9h-.3a3.19,3.19,0,0,0-.3-1.4q.9,0,.9-.6Zm1.7,8.4v.9q-.45.9-.9.9c.2-.6.4-1.1.6-1.7Zm-.8,2v.3a.68.68,0,0,1-.4.6h-.2v-.3a.53.53,0,0,1,.6-.6Zm-.6,1.4a4.92,4.92,0,0,1-.6,1.7h-.3a4.67,4.67,0,0,0,.3-1.7Zm0,22.1c2.5-5,3.7-7.8,3.7-8.3a.68.68,0,0,1,.6.4v.2c0,1-1.6,4.6-4.9,10.9l-.6-.3a6.86,6.86,0,0,0,1.2-2.9Zm-2.6-17.8h.3a.68.68,0,0,1,.6.4v.2h-.9Zm-.6,1.4q0-.45.6-.6v.9h-.6Zm-.3.6h.3v.9H214Zm-.3,27c1.9-3.2,2.9-5.5,2.9-6.9l1.4.6c-2.5,4.6-3.7,7.2-3.7,7.8l-.6-.3Zm-.5,5.2a17.41,17.41,0,0,0-2,3.7c-1.5,1.5-2.3,2.7-2.3,3.5h-.6v-.3c0-.4,1.6-2.8,4.9-7.2Zm-2.6-23.6v-.6h.6v.6Zm.8-1.1v-.6h.3v.6Zm-1.4-1.7a11.23,11.23,0,0,1,1.4-4l.6.3-.6.9v.3l.3.6c-.7,0-1.2.8-1.4,2.3H210Zm0,3.4h.3v.6H210Zm-2.3-3.4h.3v.9h-.3Zm-.3,9.8h.9c-.2,1-.5,1.4-.9,1.4Zm-.3,1.7h.3v.6h-.3Zm-2-35.1h.3a2.28,2.28,0,0,0-.3,1.1q-.45,0-.6-.6c-.1-.4.2-.4.6-.5Zm-.8,60.1h.6q0-.9.6-.9v.3l-2,3.5-.6-.3a16.12,16.12,0,0,1,.9-2.9Zm-1.2-55.8h.3v.3c-.6,2.3-1.1,3.4-1.4,3.5Zm-4,67h.3l1.7.3v.6h-.6a2,2,0,0,0-1.4-.6Zm0,3.5h.3v.3l-.3.6h-.3a3.18,3.18,0,0,0,.3-.9ZM162,149h-.3v-.6h.3Zm0-34.5a.68.68,0,0,1-.4.6h-.2v-.3q0-.45.6-.6v.3Zm.6,56.1h-.3v-1.2h.3Zm2-6.9c-1,3.1-1.7,4.6-2,4.6v-.9l.6-.9v-.3l-.3-.6c.7,0,1.2-.8,1.4-2.3h.3Zm-1.2-29.4v-.9a2,2,0,0,0,.6-1.5h.6l-.9,2.3Zm2,21a6.57,6.57,0,0,1-1.7,2.9v-.3c.9-2.1,1.4-3.2,1.7-3.2Zm.3-.8h-.3v-.6h.3Zm2.6-.3H168v-.6h.3Zm2-1.2H170v-.6h.3Zm4.6,30.5h.3v1.2h-.3Zm-2.3-32.2.9-1.7h.3c0,.1-.1.3-.2.3h-.1a.68.68,0,0,0,.4.6h.2c-.7,1-1.2,1.4-1.4,1.4v-.6Zm-4-27.3h.3a.68.68,0,0,0,.4.6h.2v.3h-.3l-.6-.3V124Zm1.7,9.2h.3v.3a15.58,15.58,0,0,0-1.7,6.3h-.6a15.38,15.38,0,0,1,2-6.6Zm-4.3-7.6c0-.1.1-.3.2-.3h.1c.7-3.6,1.3-5.5,1.7-5.5v1.4a4,4,0,0,0-.9,2,1.61,1.61,0,0,0,.3.9q-.45,0-.6.6v.3l.3.6-.9.6H166Zm1.1,15.9a2,2,0,0,0,1.4.6,19.09,19.09,0,0,1-1.4,5.2l.3.6q-.45,0-.6.6v.3l.3.6a9.91,9.91,0,0,0-1.7,1.1l-1.4-.3,1.1-2.3c.9-.6,1.6-2.7,2-6.4Zm-4-29.7a4,4,0,0,0,.9-2c.3,0,.6.4.9,1.1l-.3.6.3,1.1h-.3a2,2,0,0,0-1.4-.6Zm0,52.7h-.6v-.3h.6Zm-.8-60.7a1.61,1.61,0,0,0,.3.9l-.9,1.7h-.9c.6-1.8,1.1-2.6,1.5-2.6Zm-1.5,3.7h.3v.3a.68.68,0,0,1-.4.6H160c.2-.6.5-.9.8-.9Zm-1.1,63.6v.6q-.45,0-.6-.6Zm-2.3-72.8,1.4-.9c-.8,2.3-1.4,3.5-1.7,3.5a2,2,0,0,0-.3-1.1q.9-.45.9-.9ZM153,79.9h.3v.9h-.6A1.61,1.61,0,0,0,153,79.9Zm0,38.3v.3q-.9-.45-.9-.9t.6-.6h.3c0,.1-.1.3-.2.3h-.1A1.61,1.61,0,0,0,153,118.2Zm-.9-20.7q0-.45.6-.6v.6Zm0-16.4h.6V82h-.9a1.61,1.61,0,0,0,.3-.9Zm-.2,25.6h.3v.9h-.3Zm-3.2-17.6a.68.68,0,0,1,.6.4v.2l.6-.3a2,2,0,0,0-.3-1.1V88c.1,0,.3.1.3.2v.1a1.61,1.61,0,0,0,.9-.3h.6c-.8,1.5-1.3,2.3-1.7,2.3q0-.6-.9-.6Zm2.9,18.7v.9h-.3v-.9Zm-2-16.7v.6c-.7,1.3-1.1,2-1.4,2h-.3l.3-.6v-.3l-.6-.9a3.18,3.18,0,0,0,2-.8Zm-7.2-10c.5-1,.9-1.4,1.1-1.4h.3a1.86,1.86,0,0,1-1.4,2ZM141,71.6q0-.45.6-.6v.9H141Zm-.6,14.6h.6a1.61,1.61,0,0,0-.3.9h-.3Zm-6,8.7h.3v.6h-.3Zm-.6,1.7h.9v.3a1.61,1.61,0,0,0-.9.3ZM128,76.5h-.3v-.6h.3Zm6,25.3q-.45.9-.9.9a6.93,6.93,0,0,0,.3-2h.6Zm.9-1.8h-.6v-.3q0-.45.6-.6Zm2,2.6h-.3V102h.3Zm.5-.8h-.3v-1.1h.3Zm.9-15.3V86a2,2,0,0,0,.6-1.4h.6a3.19,3.19,0,0,0,.3,1.4,2.69,2.69,0,0,0-1.5.5Zm5.8,39.4-.6-.3q0-.45.6-.6Zm.5-1.7-.3.6-.6-.3q.45-.9.9-.9Zm-.5-17.8a23,23,0,0,1-3.7,3.2H140c2.1-4.8,3.4-7.4,4-7.8v.9q-.9,0-.9.6v.9a.68.68,0,0,0,.4.6h.8l.9-.6h.3Zm1.7-14.1q-.9,0-.9.6l.3.6c-.7,1.5-1.2,2.3-1.4,2.3,0-1.2.3-1.7.9-1.7v-.3l-.3-1.4.9-.6h.6v.5Zm-.6-14.4h-1.1V77l1.1-2,.6.3a11,11,0,0,0-.6,2.6Zm2.3,24.4H147l.6-.9V100h.9Zm4.6,50.1h-.3v-.6h.3Zm-1.4-28.2h-1.1v-.3q0-.45.6-.6c.6-2.7,1.2-4,2-4h.3v.6h-.3c-.3,0-.7,1.4-1.5,4.3Zm2,25.6h-.3V149h.3Zm1.7-4.3a4.36,4.36,0,0,0-1.1,2.9l-.6-.3c.7-2.1,1.2-3.2,1.7-3.2v.6Zm.8-32.5a4.69,4.69,0,0,0-1.4,2.9h-.6v-.6a9.39,9.39,0,0,0,1.4-2.6h.6Zm0-12.4H155V100h.3v.6Zm.6,21.9h-.3v-.6h.3Zm.6-2.3-.3,1.4h-.3v-2.3h.6Zm1.5-2.9c-.5,1.2-.9,1.7-1.1,1.7h-.3v-.9c.7-1.3,1.1-2,1.4-2Z" transform="translate(30.2 -1.53)"/></g></g><rect id="_Retngulo_" data-name=" Retngulo " class="cls-4" x="38" y="282.07" width="159" height="5.7"/><rect id="_Retngulo_2" data-name=" Retngulo 2" class="cls-4" x="664.4" y="282.07" width="159" height="5.7"/><text class="cls-5" transform="translate(182.3 37.69)">S</text><text class="cls-6" transform="translate(263.72 37.69)">T</text><text class="cls-5" transform="translate(340.31 37.69)">ARTUP</text><text class="cls-7" transform="translate(288.13 301.35)">2017</text></svg>